<svg id="Layer_1" data-name="Layer 1" xmlns="http://www.w3.org/2000/svg" viewBox="0 0 300 300"><defs><style>.cls-1,.cls-6{fill:#0d3c8c;}.cls-2{fill:#aa0025;stroke:#fff;stroke-miterlimit:10;}.cls-3{fill:#948450;}.cls-4{fill:#fff;}.cls-4,.cls-6{fill-rule:evenodd;}.cls-5{fill:#9eb1d1;}</style></defs><path class="cls-1" d="M290,150A140,140,0,1,1,150,10,140,140,0,0,1,290,150Z"/><path class="cls-2" d="M268.09,110.7c-.12,2.64,1.14,8-9.85,24.69C246,154,227,169.51,208.48,182c-11.2,7.56-21.67,12.7-33.58,18.13-3.1-.92-19.54-6.94-22.32-8.22,14.35-5.66,28.64-11.7,41.17-19.24,19.29-11.59,37.44-25.17,51.84-40.42,13.16-13.94,18.56-21.11,19.39-22.53,1.3-2.22,3.4-5.28,3.11.94Z"/><path class="cls-2" d="M198.1,209.28s.15,1.95-4.69,3.58c-2.85,1-4,2.78-2.1,4.8,2,2.21,1.23,7,1.23,7s-24.71-6.39-43.22-13.48c-20.68-7.93-39.82-16.58-58.24-29.12s-37.21-28-49.4-46.65c-10.9-16.68-9.65-22-9.77-24.69-.28-6.23,1.79-3.17,3.09-.94.82,1.41,6.18,8.59,19.24,22.52,14.29,15.26,32.31,28.84,51.45,40.43,17.57,10.64,36.71,18.38,55.17,25.21a327.84,327.84,0,0,0,37.23,11.35Z"/><path class="cls-3" d="M56.38,214.46a6.7,6.7,0,0,1,7,6.88c0,6.32-6.19,6-6.32,7.07s1.8,1.85,4.87,1.41c2.08-.3,4-3.2,4.77-2.36s-4.35,6.6-9.23,6.6A10.26,10.26,0,0,1,47.15,224c0-6.79,4.05-9.52,9.23-9.52Z"/><path class="cls-3" d="M67.58,214.37c3.61,0,4.13,1.14,5.18,4.23,1,2.9,3.16,3.61,3.63,3.59s-1.32-1.29-2.28-3.68c-.83-2.07-2-4.52,2.59-4.52,4.46,0,4.44,1.73,5.08,3.3,1,2.54,3.83,4.45,4.25,4.43s-2.17-2.45-2.8-4.62c-.47-1.67-.42-3,2.18-3,2.18,0,3.53,2.27,5.39,5.28,1.63,2.63,3.29,8.59.11,8.86-4.71.39-18.75.77-20.64-.28-3.33-1.87-4.56-4.24-5.49-7.73-1.14-4.24-1-5.84,2.8-5.84Z"/><path class="cls-2" d="M146.63,212.85c-3.82-1.44-19.88-8.22-22.62-9.63a221.84,221.84,0,0,1-23,6.06s.47,3.41,5.66,3.7h0a21,21,0,0,0,6.59-.67c-3.62,2-4.36,3.79-5.81,5.35-2,2.21-1.24,7-1.24,7Z"/><path class="cls-3" d="M213.23,214.08c2.57,0,2.63,1.35,2.16,3a15.11,15.11,0,0,1-2.78,4.62s3.19-1.89,4.22-4.43c.63-1.57.61-3.3,5-3.3,4.6,0,3.39,2.45,2.57,4.52a11.48,11.48,0,0,1-2.26,3.68,5.64,5.64,0,0,0,3.6-3.59c1-3.09,1.56-4.23,5.14-4.23,3.78,0,3.91,1.6,2.78,5.84-.93,3.49-2.15,5.86-5.45,7.73-1.87,1.05-19.8.67-24.48.28-3.16-.27-2.51-6.23-.89-8.86,1.85-3,8.18-5.28,10.35-5.28Z"/><path class="cls-3" d="M236.48,229.82c3.07.23,4.94-.6,4.84-1.41s-6.28-.75-6.28-7.07a6.68,6.68,0,0,1,7-6.88c5.14,0,9.15,2.73,9.15,9.52a10.14,10.14,0,0,1-10.28,10.08c-7.84-.18-10.16-5.87-9.16-6.59s2,2.15,4.73,2.35Z"/><path class="cls-4" d="M150,135.22c14.44,0,36.5,6.54,46.15-1.65,10.15-8.62,12-14.46,12-29.66,0-29.64-28.51-62.62-58.15-62.62s-58.15,33-58.15,62.62c0,15.2,1.85,21,12,29.66,9.65,8.19,31.71,1.65,46.15,1.65Z"/><polygon class="cls-4" points="120.92 144.17 179.07 144.17 174.6 173.24 125.4 173.24 120.92 144.17 120.92 144.17"/><path class="cls-5" d="M174.6,155.35h-4.47V144h4.47Zm-8.94,0h-4.48V144h4.48Zm-8.95,0h-4.47V144h4.47Zm-9,0h-4.47V144h4.47Zm-8.94,0h-4.48V144h4.48Zm-8.95,0H125.4V144h4.47Z"/><path class="cls-6" d="M150,124.14c5.7,0,10.32,1.22,10.32-4.48s-8.81-11.28-10.32-11.28-10.32,5.58-10.32,11.28,4.62,4.48,10.32,4.48Z"/><path class="cls-6" d="M120.93,110.62c8.64,0,24.6-9.25,24.6-17.89a15.66,15.66,0,0,0-15.66-15.66c-8.65,0-20.13,9.25-20.13,17.89s2.54,15.66,11.19,15.66Z"/><path class="cls-6" d="M179.07,110.62c-8.64,0-24.6-9.25-24.6-17.89a15.66,15.66,0,0,1,15.66-15.66c8.65,0,20.13,9.25,20.13,17.89s-2.54,15.66-11.19,15.66Z"/><path class="cls-2" d="M240.67,211.74A10.42,10.42,0,0,0,233,214.6c-3.77-.62-8.81-.5-14.62-.83-3.22-.18-6.27-.48-9-.68a27.89,27.89,0,0,1,3.27-4.76c1-.94,1.85-1.41,2.36-.84s.62,3.67,4.63,3.67,6.9-2.64,6.9-7.35-3.6-7.16-8.44-7.16-8.75,2-12.55,6-4.54,8-7.1,9.91c-2.41,1.83-5.54,2.25-5.74,3s2.45,1.82,2.65,5.77-.52,8.68-1.85,10.75-2.89,3.58-3.4,3.49-.61-3.3-3.91-3.3h0c-3.6,0-5.45,2.17-5.46,6.69s3.92,5.75,9,5.75a11.18,11.18,0,0,0,11-7.92c.79-2.44,1.56-5.29,2.37-8.15,3.53,1,8.16,1.3,13.4,1.6,4.94.28,9.93.72,14.06.39a10.79,10.79,0,0,0,8.78,5.81c6.11.35,11.37-4.9,11.76-11.73S246.78,212.08,240.67,211.74Z"/><path class="cls-2" d="M112.68,232.27c-3.32,0-3.42,3.21-3.94,3.3s-2.07-1.41-3.42-3.49-1.66-6.36-1.71-10.32c-.06-4.57,3.69-6.17,3.43-6.65s-4,.07-6.8-2.06c-1.91-1.48-3.25-6.35-7-10.37s-7.78-6-12.65-6S72,199.1,72,203.81s2.9,7.35,6.94,7.35,4.15-3.11,4.67-3.67h0c.52-.57,1.35-.1,2.38.84a25.38,25.38,0,0,1,2.89,4.08c-3.18.17-6.81.56-10.69.77-5.84.31-10.92.14-14.71.78a10.14,10.14,0,0,0-7.41-2.78c-6.14.33-10.81,6.46-10.42,13.7s5.68,12.84,11.82,12.51a10.82,10.82,0,0,0,9-6.38c4.06.32,8.91-.1,13.7-.35,6.29-.34,11.7-.64,15.41-2.34.85,3,1.66,5.94,2.48,8.48a11.26,11.26,0,0,0,11.09,7.91c5.08,0,9-1.22,9-5.75S116.31,232.27,112.68,232.27Z"/></svg>