<?xml version="1.0" encoding="UTF-8"?>
<!-- Generator: Adobe Illustrator 27.3.1, SVG Export Plug-In . SVG Version: 6.00 Build 0)  -->
<svg xmlns="http://www.w3.org/2000/svg" xmlns:xlink="http://www.w3.org/1999/xlink" version="1.1" x="0px" y="0px" viewBox="0 0 2500 800" style="enable-background:new 0 0 2500 800;" xml:space="preserve">
<style type="text/css">
	.st0{fill:#FFFFFF;}
	.st1{fill:#CFD8E8;}
	.st2{fill:#9EB1D1;}
	.st3{fill:#0D3D8C;}
	.st4{fill:#AB0026;}
</style>
<g id="Layer_1">
	<g>
		<g>
			<g>
				<path class="st0" d="M40.7,216.7c0-3.8,3.2-7,7-7h0.9h44.6c28,0,50.7,22.7,50.7,51c0,16-7.9,30.3-19.5,39.7      c23,7.9,39.9,29.5,39.9,55.1c0,32.4-26.2,58.3-58.3,58.3H48.6h-0.9h-0.3c-3.8,0-6.7-3.2-6.7-7V216.7z M93.2,296.9      c20.1,0,36.5-16.3,36.5-36.2c0-20.4-16.3-36.7-36.5-36.7H55v72.9H93.2z M106,399.6c24.2,0,43.7-19.5,44-44      c-0.3-24.2-19.8-44-44-44H55v88.1H106z"></path>
				<path class="st0" d="M204.7,216.7c0-3.8,3.2-7,7-7h0.6h104.4c4.1,0,7,3.2,7,7c0,4.1-2.9,7.3-7,7.3H219v80.8h85.4      c3.8,0,7,3.2,7,7.3c0,3.8-3.2,7-7,7H219v80.5h97.7c4.1,0,7,3.2,7,7.3c0,3.8-2.9,7-7,7H212.6h-0.9h-0.6c-3.5-0.3-6.4-3.2-6.4-7      V216.7z"></path>
				<path class="st0" d="M700.8,206.8c54.5,0,97.4,46.4,97.7,103.5c-0.3,57.2-43.2,103.5-97.7,103.5c-55.1,0-98.3-46.4-98.6-103.5      C602.6,253.2,645.7,206.8,700.8,206.8z M700.8,399.6c44.9,0,82.8-39.4,83.1-89.2c-0.3-50.5-38.2-88.9-83.1-88.9      c-46.4,0-84.3,38.5-84.3,88.9C616.6,360.2,654.5,399.6,700.8,399.6z"></path>
				<path class="st0" d="M856.1,239.8v167.1c0,3.8-3.2,7-7,7s-7-3.2-7-7V219.7c-0.9-2.9,0-5.8,2.6-7.9c3.2-2,7.9-1.5,9.9,1.7      L978.3,385V218.8c0-3.8,3.2-7,7-7c4.1,0,7.3,3.2,7.3,7v188.1c0,3.8-3.2,7-7.3,7c-2.3,0-4.1-0.9-5.5-2.6      c-0.3-0.3-0.9-0.6-1.2-1.2L856.1,239.8z"></path>
				<path class="st0" d="M1059.2,413.9h-1.2c-3.5-0.3-6.4-3.2-6.4-7V216.7c0-3.8,3.2-7,7-7h0.9h37.3c56.3,0,102.1,46.1,102.1,102.4      c0,56.3-45.8,101.8-102.1,101.8H1059.2z M1096.9,399.6c48.4,0,87.8-39.1,87.8-87.5c0-48.7-39.4-87.8-87.8-88.1h-30.9v175.6      H1096.9z"></path>
				<path class="st0" d="M1384.1,224h-61.5c-3.8,0-7-3.2-7-7.3c0-3.8,3.2-7,7-7h137.1c3.8,0,7,3.2,7,7c0,4.1-3.2,7.3-7,7.3h-61.5      v182.8c0,3.8-3.2,7-7,7c-3.8,0-7-3.2-7-7V224z"></path>
				<path class="st0" d="M1621.6,318.8h-105v88.1c0,3.8-3.2,7-7.3,7c-3.8,0-7-3.2-7-7V216.7c0-3.8,3.2-7,7-7c4.1,0,7.3,3.2,7.3,7      v88.1h105v-88.1c0-3.8,3.2-7,7-7c4.1,0,7.3,3.2,7.3,7v190.1c0,3.8-3.2,7-7.3,7c-3.8,0-7-3.2-7-7V318.8z"></path>
				<path class="st0" d="M1694.6,216.7c0-3.8,3.2-7,7-7h0.6h104.4c4.1,0,7,3.2,7,7c0,4.1-2.9,7.3-7,7.3h-97.7v80.8h85.4      c3.8,0,7,3.2,7,7.3c0,3.8-3.2,7-7,7h-85.4v80.5h97.7c4.1,0,7,3.2,7,7.3c0,3.8-2.9,7-7,7h-104.1h-0.9h-0.6      c-3.5-0.3-6.4-3.2-6.4-7V216.7z"></path>
				<path class="st0" d="M2095,238.9l-65.3,90.7c-1.5,2.3-3.8,3.2-5.8,3.2h-0.6c-2.6,0-4.7-0.9-6.1-3.2l-65.3-90.4v167.7      c0,3.8-3.2,7-7,7c-4.1,0-7.3-3.2-7.3-7v-189c0-2.3,1.2-4.4,2.9-5.5c0-0.3,0.3-0.3,0.6-0.6c3.2-2,7.6-1.5,9.9,1.7l72.6,100.6      l72.3-100.6c2-3.2,6.7-3.8,9.9-1.7c0.9,0.9,1.5,1.5,2,2.3c0.6,1.2,1.2,2.6,1.2,3.8v189c0,3.8-3.2,7-7,7c-4.1,0-7-3.2-7-7V238.9z      "></path>
				<path class="st0" d="M2273.2,361.1h-93l-18.1,48.1c-1.2,2.9-3.8,4.7-6.7,4.7c-0.6,0-1.8-0.3-2.6-0.3c-3.5-1.5-5.5-5.8-4.1-9.3      l70.9-189.3c1.2-2.6,4.1-4.4,7-4.4c3.2,0,6.1,1.7,7,4.4l70.9,189.3c1.5,3.5-0.3,7.9-3.8,9.3c-1.2,0-1.7,0.3-2.6,0.3      c-2.6,0-5.5-1.7-6.7-4.7L2273.2,361.1z M2185.4,346.8h82.5l-41.1-109.6L2185.4,346.8z"></path>
				<path class="st0" d="M2336.5,216.7c0-3.8,3.2-7,7-7h0.9h56.9c32.1,0,58,26.2,58,58.3c0,32.1-26,58-58,58l-50.4,0.6v80.2      c0,3.8-3.2,7-7.3,7c-3.8,0-7-3.2-7-7V216.7z M2401.3,312.4c24.2-0.3,44-20.1,44-44.3c0-24.2-19.8-44-44-44h-50.4v88.4H2401.3z"></path>
			</g>
		</g>
		<g>
			<g>
				<g>
					<path class="st1" d="M393.1,558.8c-34.9,35.8-54.5,54.4-62.3,83c-3.6,13.2-9.2,32.3-15.7,42.9c-11.6,18.9-22.8,13.3-22.3-0.8       c0.6-19.5,16.1-50.1,31.4-68.9c25-30.9,52.1-56.4,84.3-133.8l11.3,40.3L393.1,558.8z"></path>
					<path class="st0" d="M712.8,89.7C659.9,121.4,576.3,232.7,480,226.5C377.6,219.9,282.9,102.6,231.3,74       c-41.1-22.8-65.7,2.6-65.7,2.6c29.5-14.4,56-1.9,88.8,28.3c67.9,62.6,102.5,133.8,120.4,179.9c38,97.5,41.9,172.1,26,246.4       c-9.1,42.5-29.9,96.4-50.6,132.8c-20.6,36.4-35,40-50,57.7c-12.5,14.7-12.5,35.3-0.3,40.1c8.7,3.5,19.1-4.2,26-19.2       c25.1-55.1,41.2-79.1,76.8-144c16-29.2,115.6-231.9,171.5-322.9C659,137.4,729.3,76.2,772,73.5C772,73.5,754.6,64.5,712.8,89.7       z"></path>
				</g>
				<path class="st0" d="M773.9,70.3c-4.7-2.4-10.7-2.3-15.8-1.9c-12.4,1.2-24.3,5.7-35.4,11.4c-1.1-8.5,3.1-10.7,3.1-18.9      c0-9.3-6.5-15.3-11.1-13.1c-4.6,2.2-2,10.5-1.1,12.8c2.2,5.8-3.6,11.6-6.6,16c-6.2,8.9-4.6,14.5-7.7,17.6      c-10.6,7.7-20.5,16.4-30.2,25c-16.7,14.7-33.2,29.6-50.4,43.7c-34.7,28.2-75.5,56.3-121.5,59.7c-47.1,3.5-92-20.1-129.6-46      c-37.1-25.6-69.6-56.6-104.6-84.8c-8.8-7.2-18-14.5-28-20.2c-2.8-2.9-5.2-6.6-6.6-10.7c-1.4-4.2-3.7-10-1.5-15.8      c0.9-2.4,5.6-8.8,1-11c-4.6-2.2-13.6,3.3-13.6,12.7c0,7.6,3.5,10,3.2,17c-1-0.3-2-0.6-3-0.9c-16.8-4.5-35.4-2-49.2,9      c-0.8,0.6-1.5,1.2-2.2,1.9c-3.1,3.2,0.8,7.7,4.6,5.9c12.9-6.2,26.8-7,40.3-2.2c15.9,5.6,29.6,16.9,42,28.1      c26.7,24.2,50.3,51.8,70.4,81.7c34.1,50.8,58.7,108.5,73.5,167.9c7.9,31.7,12.4,64.3,12.3,97c0,9.4-0.4,18.8-1.2,28.1      c-12.1,29.2-26.4,57.6-44.5,83.5c-11.8,16.9-25.6,32.2-38.7,48.5c-10.4,12.9-18.8,27.4-25.2,42.7c-2.8,6.8-5.2,13.9-6.5,21.1      c-1,6.2-1.7,13.3,1.6,18.9c3.1,5.2,8.9,6.7,14.4,4.3c6.8-3.1,11.5-10.4,14.8-16.8c3.7-7.4,6.5-15.2,9-23.1      c2.2-7,3.9-14.3,6.2-21.3c3.7-11.2,10.1-21.7,17.6-31.2c9.9-12.5,21.2-23.8,32.3-35.2c0.1-0.1,0.2-0.2,0.2-0.3      c-7.7,24-17.2,47.5-28.2,70c-7.2,14.7-15,29.5-25.2,42.4c-7.2,9.1-15.7,16.5-24.3,24.1c-9.5,8.6-18.5,18.4-20.8,31.5      c-1.9,11.3,2.4,26.6,16.3,26.8c15.7,0.2,23.4-18.1,28.9-29.8c6.1-13,12.4-25.9,19.1-38.7c21.4-40.7,45.4-80,66.3-120.9      c14.8-28.9,34.6-68.4,61.7-120.8c5.5-10.6,11-21.2,16.5-31.8c-1.4,0.1-2.9,0.1-4.6-0.1c-1.2-0.1-2.4-0.3-3.6-0.5      c-21.3,40.9-42.3,81.9-63.2,123c-7.1,14-14.2,28.1-21.5,42c-11.6,22.3-24.3,44.1-36.7,66c-13.7,24.3-27,48.8-38.9,74.1      c-3.6,7.6-6.5,15.9-11.8,22.4c-3.3,4.1-8.9,9.1-14.6,7c-5.1-1.8-6.9-7.6-7-12.5c-0.1-7.5,3-14.9,7.6-20.7      c6.6-8.4,15.4-14.9,23.1-22.2c10.4-9.8,19-21.3,26.2-33.7c17.5-29.8,30.8-62.5,41.5-95.3c9.8-30.2,16.5-61.2,19.2-92.9      c2.7-31.4,1-62.9-4.1-93.9c-6-36.2-16.9-71.4-30.3-105.5c-9.5-24.2-20.6-47.7-33.6-70.2c-16.7-29-36.4-56.3-58.9-81.1      c-12.7-14-26.2-27.5-40.9-39.5c-11.9-9.6-25.1-18.7-40.1-22.5c19,2.2,35.3,14.3,49.8,25.8c34.5,27.4,66.4,58,102.3,83.7      c37.6,26.9,81.7,51.5,129,52.4c46,0.9,88.1-23.6,123.6-50.6c18.2-13.9,35.4-29,52.5-44.2c14.2-12.6,28.3-25.5,43.7-36.6      c3.1-2.2,6.2-4.3,9.4-6.3c6.7-4,13.8-8,21.3-11.1c-1.1,0.6-2.1,1.2-3.2,1.8c-17.6,10.5-33.3,24.2-47.8,38.5      c-20.3,20.1-38.6,42.2-55.7,65c-21.7,28.8-41.7,59-60.5,89.9c-16.2,26.6-31.3,53.8-46.1,81.2c2,1.9,3.8,3.9,5.4,6.1      c9.3-17.2,18.7-34.3,28.4-51.2C587,259.5,620.8,207,660.7,159.9c16-18.9,33.1-37,52.2-52.8c12.7-10.5,27-20.5,42.5-26      c5.5-2,11.4-3.4,16.6-3.8C775.4,77.1,777.5,72.1,773.9,70.3z M394.3,542.6c-1.1,4.3-2.3,8.7-3.5,13c-0.2,0.2-0.4,0.5-0.5,0.7      c-11.8,12.1-23.9,24.1-35.1,36.8c-8.4,9.6-16.3,19.8-21.9,31.3c-6.1,12.7-8.7,26.7-13.3,40c-2.5,7-5.2,14-9.3,20.2      c-1.8,2.8-4.2,5.6-6.9,7.3c-0.3,0.2-0.7,0.4-1,0.6c0,0-0.1,0.1-0.2,0.1c-0.4,0.2-0.8,0.3-1.3,0.4c-0.1,0-0.5,0-0.8,0      c0.1,0-0.6-0.2-0.8-0.2c-0.1-0.1-0.3-0.2-0.5-0.3c0,0-0.6-0.6-0.8-0.8c0,0,0,0,0,0c0,0,0,0,0-0.1c-0.1-0.2-0.3-0.5-0.4-0.7      c-0.1-0.2-0.2-0.4-0.3-0.6c0,0,0-0.1,0-0.1c-0.1-0.2-0.2-0.4-0.2-0.7c-0.8-2.6-0.8-4.9-0.6-7.9c0.5-6.4,2.5-13.1,4.8-19.3      c5.4-14.8,13.4-29,22.9-41.6c6-8,12.8-15.5,19.2-23.2c6.8-8.2,13.5-16.5,19.8-25.2c15.1-20.8,27.6-43.3,38.4-66.6      C399.8,518.2,397.4,530.5,394.3,542.6z"></path>
				<path class="st2" d="M508.7,420c-4.9,3.2-9.6,4.9-17,4.3c-18.2-1.5-36.4-16.8-36.4-35.1c0-6.5,1.4-11.7,4.4-16.3l15.7-18.5      l50.4,51.2L508.7,420z"></path>
				<path class="st0" d="M534.6,384.3c0,18.3-12,29.2-29.9,27.7c-18.2-1.5-37.4-18.1-37.4-36.4c0-18.3,13.4-31,31.5-28.4      C520,350.4,534.6,366,534.6,384.3z"></path>
				<path class="st3" d="M520.4,365.1c-5-5.7-12.2-9.6-19.7-10.6c-4.5-0.6-9.1-0.3-13.5,0.9c-1.9,0.5-1.1,3.5,0.8,2.9      c6.9-2,14.4-1.4,20.9,1.7c6.3,3,11.5,8.3,14.1,14.8c1.6,4,2.2,8.2,1.8,12.5c-0.1,1.9,2.9,1.9,3,0      C528.4,379.2,525.7,371.2,520.4,365.1z"></path>
				<g>
					<polygon class="st0" points="505.5,356.4 490.7,376 510.3,379.8      "></polygon>
					<path class="st4" d="M512.1,381.7l0.1,0l-5.9-29L488.1,377l0,0l0,0l0,0l0,0l7.1,27.8L512.1,381.7z M504.7,359.9l3.6,18l-15-2.9       L504.7,359.9z"></path>
				</g>
				<g>
					<path class="st4" d="M451.7,237.9c1.4,2.6,5.7-6.9,0.8-13c-7.5-9.3-16.4-8.2-22.6-5.9c-9.8,3.7-16.9,8-27.3,9.8       c-5.2,0.9-22.3-2.4-31.7-10.5c-6.1-5.3-10.3-14.9-11.3-22.9c-2.2,0.1-5,14.9-4.6,24.2c1.1,21.9,18.7,31.4,27.9,32.8       c14.6,2.3,21.7-2.1,28.5-8.4c2-1.9,14.8-17.4,25.4-15.8C436.8,228.2,446.4,228,451.7,237.9z"></path>
					<path class="st0" d="M450.4,238.7c0.8,1.4,2.5,1.5,3.6,0.4c1.1-1,1.6-2.6,1.9-4c0.5-2.1,0.5-4.2,0-6.3       c-0.5-2.5-1.9-4.5-3.6-6.4c-3.2-3.5-7.4-5.9-12.2-6.4c-3.9-0.5-7.7,0.4-11.3,1.8c-5.1,2-10.1,4.4-15.2,6.3       c-2.6,1-5.2,1.8-7.9,2.5c-0.7,0.2-1.3,0.3-2,0.4c-0.3,0.1-0.7,0.1-1,0.2c-0.2,0-0.4,0.1-0.6,0.1c0,0-0.3,0-0.1,0       c0.1,0-0.4,0-0.6,0c-0.3,0-0.7,0-1,0c-3.4,0-6.9-0.7-10.2-1.5c-4.3-1.1-8.5-2.6-12.4-4.7c-4-2.2-7.6-5-10.2-8.8       c-2.8-4.1-4.8-8.8-6-13.7c-0.3-1.1-0.5-2.2-0.6-3.4c-0.1-0.7-0.6-1.6-1.5-1.5c-2,0.2-2.7,2.3-3.3,3.9c-0.9,2.5-1.4,5.2-1.8,7.8       c-1.1,6.5-1.5,13.3-0.3,19.8c2.1,10.8,9.2,20.1,19,25.2c4.1,2.1,8.3,3.3,12.9,3.7c6.3,0.6,12.7-0.1,18.3-3.1c3.8-2,7-4.9,9.9-8       c3.4-3.6,7-7.1,11.2-9.9c2.2-1.5,4.6-2.7,7.2-3.4c1.6-0.4,3.2-0.3,4.8-0.2c0.2,0,0.5,0,0.7,0.1c0.4,0-0.1,0,0.1,0       c0.2,0,0.4,0.1,0.6,0.1c0.9,0.2,1.8,0.4,2.7,0.7c2.3,0.8,4.4,2.3,6.1,4.1C448.7,235.9,449.6,237.2,450.4,238.7       c0.9,1.7,3.5,0.2,2.6-1.5c-2.7-4.9-7.1-8.6-12.5-10c-1.2-0.3-2.4-0.5-3.6-0.5c0,0-0.1,0-0.1,0c0.5,0-0.3,0-0.4-0.1       c-0.6-0.1-1.3-0.1-1.9,0c-1.3,0.1-2.6,0.3-3.8,0.7c-5.3,1.7-9.9,5.3-14,9.1c-2.7,2.5-5.1,5.4-7.9,7.9c-3.9,3.5-8.4,6-13.6,6.9       c-3.2,0.6-6.6,0.5-9.9,0.1c-2.1-0.2-4.1-0.6-6-1.3c-8.8-2.9-16.5-9.8-20.2-18.5c-2.4-5.8-3-12-2.5-18.2       c0.2-3.1,0.6-6.1,1.2-9.2c0.3-1.3,0.6-2.6,0.9-3.9c0.1-0.5,0.3-1,0.5-1.5c0.2-0.5,0.3-0.8,0.4-1.1c0.1-0.2,0.2-0.3,0.3-0.5       c0-0.1,0.3-0.6,0.1-0.2c0-0.1,0.1-0.2,0.2-0.2c-0.3,0.1-0.2,0.2-0.6,0.2c-0.5-0.5-1-1-1.5-1.5c1.2,9.2,5.4,19.1,12.9,24.9       c6.6,5.2,15.1,8.1,23.3,9.5c2.9,0.5,5.9,0.9,8.8,0.4c5.3-0.9,10.4-2.7,15.3-4.8c4.5-1.9,8.9-4.1,13.6-5.5c3.4-1,7-1.4,10.5-0.3       c2.3,0.7,4.5,2,6.2,3.6c2,1.8,3.7,3.8,4.3,6.4c0.4,1.9,0.3,4-0.3,5.8c-0.1,0.4-0.2,0.5-0.4,0.9c-0.1,0.1-0.1,0.3-0.2,0.4       c0,0.1-0.1,0.2-0.1,0.2c0.1-0.1,0.1-0.1,0,0c0,0.1-0.2,0.2-0.2,0.2c0-0.1,0.3-0.1,0.2-0.1c0.3,0,0.5,0,0.8,0.1       c0.1,0.1,0.3,0.3,0.2,0.2C452,235.5,449.4,237,450.4,238.7z"></path>
				</g>
				<path class="st0" d="M542.9,166.4c-3.1-0.5-5.6,1.4-7.5,3.5c-2.7,2.9-5.1,6-8.3,8.4c-2.3,1.7-4.7,2.9-7.3,4      c-0.9,0.4-0.9,1.5-1.2,2.3c-0.9,3.2-1.8,6.4-2.6,9.6c-0.2,0.7-0.6,1.5-0.6,2.3c-0.1,0.8,0.3,1.8,0.5,2.6c0.7,3.1,1.3,6.2,2,9.4      c0,0.2,0.1,0.5,0.1,0.7c0.1,0.4,0.4,0.6,0.7,0.5c0,0,0.1,0,0.1,0c0,0,0,0,0,0c0.1,0,0.1,0,0.2-0.1c5.4-2.6,10.4-6.1,14.8-10.3      c3.6-3.3,6.9-7.2,9-11.7c1.9-4,3.2-8.6,3.6-13C547,171.6,546.7,167,542.9,166.4z"></path>
				<g>
					<path class="st4" d="M505,233.6c2.7,25.9-6.4,31.6-24.7,31.5c-19.9-0.1-25.5-14.8-26.1-17.5l5.4-16.9l25.6,1.5L505,233.6z"></path>
					<g>
						<path class="st0" d="M503.5,233.4c0.7,6.5,1.1,13.5-1.3,19.7c-0.7,1.9-1.9,3.8-3.4,5.3c-1.4,1.3-3.3,2.5-5,3.1        c-2.2,0.8-4.7,1.3-6.9,1.6c-3.2,0.3-6.4,0.4-9.6,0.2c-6.1-0.5-12-2.9-16.3-7.3c-1.7-1.7-2.9-3.4-4-5.5        c-0.2-0.4-0.4-0.8-0.6-1.2c0-0.1-0.3-0.6-0.2-0.4c0.1,0.2-0.1-0.3-0.1-0.4c-0.2-0.5-0.4-1-0.5-1.5c0,0.3,0,0.5,0,0.8        c1.6-4.9,3.2-9.9,4.8-14.8c0.2-0.7,0.4-1.4,0.7-2.1c-0.5,0.4-1,0.7-1.5,1.1c6.6,0.4,13.2,0.8,19.8,1.2        c5.2,0.3,10.4,0.7,15.6,1c3.3,0.2,6.7,0.4,10,0.7c1.9,0.1,1.9-2.9,0-3c-6.4-0.4-12.8-0.8-19.2-1.3c-5.9-0.4-11.7-0.7-17.6-1.1        c-2.9-0.2-5.8-0.3-8.6-0.5c-0.7,0-1.3,0.5-1.5,1.1c-1.7,5.2-3.4,10.5-5,15.7c-0.2,0.8-0.5,1.4-0.3,2.2        c0.2,0.8,0.6,1.6,0.9,2.4c1.1,2.5,2.6,4.8,4.4,6.9c2.6,2.9,5.8,5.1,9.3,6.7c4.7,2,9.7,2.6,14.7,2.5c6.7-0.1,14.3-1.1,19.2-6.1        c5.6-5.9,6-15,5.6-22.6c-0.1-1.4-0.2-2.8-0.3-4.3c-0.1-0.8-0.6-1.5-1.5-1.5C504.2,231.8,503.4,232.5,503.5,233.4z"></path>
					</g>
					<path class="st2" d="M452.8,248.2c2.4,4.3,4.2,9,4.1,14c0,4-1.3,7.8-3,11.4c-3.5,6.9-8.9,12.7-11.8,19.9       c-1.6,4.1-2.4,8.9-2.4,13.3c-0.1,3.8,0.5,7.7,2.2,11.1c3.1,6.4,9.6,9.9,16.3,11.2c4.1,0.8,8.3,0.9,12.4,0.7       c4.7-0.3,9.6-0.9,14.1-2.1c7.7-2.1,14.2-6.9,17.6-14.2c2.7-6,3.4-12.5,4.3-18.9c0.4-2.5,0.8-5.1,1.7-7.5       c0.1-0.3-0.1,0.2,0.1-0.1c0.1-0.1,0.1-0.2,0.2-0.4c0.1-0.2,0.3-0.5,0.4-0.7c0.4-0.7,0.9-1.3,1.4-1.9c1.4-1.6,3-3.1,4.6-4.5       c3.2-2.7,6.5-5.3,9-8.7c2.7-3.7,3.9-8.6,3.3-13.1c-1.1-9.7-9.7-16.8-17-22.2c-1.5-1.1-3-2.2-4.6-3.2c-1.6-1.1-3.1,1.5-1.5,2.6       c7,4.8,14.8,10.2,18.6,18c1.9,4,2.1,8.6,0.6,12.7c-1.4,3.7-4.3,6.5-7.2,9c-3.2,2.7-6.5,5.4-9.1,8.8c-1.5,2-2.2,4.3-2.7,6.7       c-1.2,5.9-1.4,11.9-3.1,17.7c-0.9,3.1-2.1,6-4.1,8.6c-2,2.8-5,5-8.1,6.5c-4.1,2-8.6,2.8-13.1,3.4c-4.2,0.6-8.4,0.8-12.6,0.5       c-3.4-0.2-7.1-0.9-10.1-2.2c-1.5-0.6-2.9-1.4-4.1-2.4c-0.9-0.7-2.2-2-2.9-2.9c-4.7-6.2-3.9-14.9-2.1-22.2       c1.8-7,7.1-12.8,10.7-18.9c2-3.4,3.8-7.1,4.6-11c0.9-4.3,0.6-8.8-0.7-13.1c-0.8-2.6-1.9-5-3.3-7.4       C454.5,244.9,451.9,246.5,452.8,248.2L452.8,248.2z"></path>
				</g>
				<path class="st0" d="M452.5,188.3c-1-2.6-1.9-5.2-2.9-7.7c-0.7-2-1.5-4-2.2-6c0.1-0.2,0.1-0.4-0.1-0.6      c-3.9-5.2-8.7-11.2-15.1-13.1c-5.2-1.6-11.4,0.2-14.8,4.5c-1.8,2.3-2.7,5.2-3.1,8c-0.4,2.9-0.5,5.8,0.1,8.7      c1.2,6,5.2,10.8,9.9,14.5c3.2,2.5,6.6,4.5,10.4,5.9c3.6,1.3,7.3,2.2,10.9,3.1c0.4,0.1,0.8-0.1,0.9-0.5c1.9-4.4,3.7-8.9,5.6-13.3      c0.3-0.6,0.7-1.3,0.8-1.9C453,189.2,452.7,188.8,452.5,188.3z"></path>
				<g>
					<path class="st3" d="M519.9,183c0,6.5,1.3,25-5.7,37.1c-6.2,10.7-13.2,22.1-32.4,22.1c-12,0-31.4-10.8-35-33.9       c-1.4-9.4-1.3-14.9-0.3-33.9L519.9,183z"></path>
					<path class="st0" d="M518.3,183c0,11,0.5,22.2-3.6,32.6c-1,2.5-2.4,4.9-3.8,7.2c-1.3,2.1-2.6,4.1-4.1,6c-3.1,4-7,7.4-11.7,9.4       c-2.7,1.2-5.7,1.9-8.6,2.2c-1.7,0.2-3.4,0.3-5.1,0.2c-0.4,0-0.9,0-1.3-0.1c-0.2,0-0.4,0-0.6-0.1c-0.2,0-0.6-0.1-0.6-0.1       c-4.2-0.6-8.3-2.2-12-4.3c-9.7-5.7-16.3-15.5-18.4-26.6c-1.8-9.5-1.3-19.6-0.8-29.3c0.1-2,0.2-3.9,0.3-5.9       c-0.5,0.5-1,1-1.5,1.5c2.4,0.3,4.9,0.6,7.3,0.9c5.8,0.7,11.7,1.4,17.5,2.1c7.1,0.8,14.1,1.7,21.2,2.5       c6.1,0.7,12.2,1.4,18.3,2.2c2,0.2,4,0.5,6.1,0.7c0.9,0.1,1.9,0.3,2.9,0.3c0,0,0.1,0,0.1,0c0.8,0.1,1.5-0.8,1.5-1.5       c0-0.9-0.7-1.4-1.5-1.5c-2.4-0.3-4.9-0.6-7.3-0.9c-5.8-0.7-11.7-1.4-17.5-2.1c-7.1-0.8-14.1-1.7-21.2-2.5       c-6.1-0.7-12.2-1.4-18.3-2.2c-2-0.2-4-0.5-6.1-0.7c-0.9-0.1-1.9-0.3-2.9-0.3c0,0-0.1,0-0.1,0c-0.8-0.1-1.5,0.8-1.5,1.5       c-0.5,10.9-1.4,21.9,0.1,32.8c0.9,6.2,2.7,12.2,6,17.6c2.9,4.8,6.9,8.9,11.4,12.2c3.9,2.8,8.3,4.9,12.9,6       c5.4,1.3,11.2,1,16.5-0.5c5.5-1.5,10.4-4.4,14.3-8.5c3.6-3.8,6.3-8.2,8.9-12.7c6.2-10.6,6.3-23.6,6.1-35.5c0-0.9,0-1.8,0-2.7       C521.4,181.1,518.3,181,518.3,183z"></path>
				</g>
				<g>
					<path class="st4" d="M451.6,236.7c2.9-0.6,1.2-5.9,6.3-5.9c3.2,0,7.2,12.4-2.2,15.5c-9.4,3-14.4,1.3-16.1-1.6       c-0.8-1.3-1.9-4.9-0.5-5.4C439,239.3,445.1,238.1,451.6,236.7z"></path>
					<path class="st0" d="M450.8,238.2c2-0.5,2.6-2.3,3.3-4c0.1-0.2,0.2-0.5,0.4-0.8c0.2-0.3,0.4-0.5,0.6-0.7       c0.3-0.2,0.7-0.3,1.1-0.4c0.2,0,0.4,0,0.6,0c-0.5,0,0,0,0,0c0,0-0.3-0.2,0,0c0.3,0.2,0,0,0,0c0.1,0.1,0.2,0.2,0.3,0.3       c0.1,0.1,0.1,0.1,0.1,0.2c0.1,0.2-0.2-0.3,0,0c0.4,0.6,0.7,1.2,0.9,1.6c0.6,1.6,0.8,3.1,0.6,4.8c-0.2,1.5-1,3.1-2.3,4.2       c-0.8,0.7-1.8,1.1-2.8,1.4c-1.7,0.5-3.4,1-5.1,1.2c-2.2,0.3-4.6,0.4-6.7-0.4c-1.3-0.5-2.1-1.2-2.7-2.6       c-0.2-0.6-0.5-1.3-0.5-1.9c0-0.2,0-0.4,0-0.6c0-0.1,0.1,0-0.1,0.1c-0.6,0.2,0,0.1,0.2,0c0.4-0.1,0.8-0.2,1.2-0.3       C443.6,239.7,447.2,238.9,450.8,238.2c1.9-0.4,1.1-3.3-0.8-2.9c-3.6,0.8-7.3,1.5-11,2.3c-0.6,0.1-1.4,0.2-2,0.5       c-1.3,0.7-1.5,2.2-1.3,3.6c0.3,2.4,1.3,4.6,3.3,6c1.9,1.4,4.5,1.8,6.8,1.8c3.5,0,7.3-0.8,10.4-2.2c2.3-1,4-2.9,4.9-5.3       c1.3-3.5,0.7-8.7-2-11.5c-1.7-1.8-4.7-1.4-6.4,0.2c-0.9,0.8-1.3,2-1.7,3.1c-0.2,0.6-0.2,0.6-0.5,1.1c-0.1,0.2-0.1,0.1-0.2,0.2       c0.1-0.1-0.1,0-0.1,0.1c-0.1,0-0.1,0,0.1,0c-0.1,0-0.2,0.1-0.3,0.1C448.2,235.7,449,238.6,450.8,238.2z"></path>
				</g>
				<path class="st4" d="M446.7,174.1c0.6-2.3,6-27,10.6-37.7c2-4.7,4.1-11.1,12.5-11.1c10.8,0,11.3,10.3,19.8,11.1      c7.6,0.7,8.3-9.9,19.8-9c10.6,0.8,11.7,18,11.8,20.1c0.3,7.5,0.3,20.7-1.3,34.1c-0.3,2.4-8.9,8.7-14.6,11.8      c-7.8,4.2-20.4,3.7-27,2C455,189.1,446.7,174.1,446.7,174.1z"></path>
				<path class="st4" d="M520,168.1c-2.3-2.1-15.9-11.7-38.8-11.7c-10.3,0-21.7,1.4-30.5,6.7l-2.7,10.4c1.4-0.3,21.5-2.1,35.9-2      c11.1,0.1,25.6,2.5,35.2,8.2L520,168.1z"></path>
				<g>
					<path class="st4" d="M450.8,236.9c0,0-3.9,0.2-8.5,2.4c-9.5,4.5-7.9,12.4-10.4,23.4c-2.8,11.9-6.3,24.9-29,39.8       c-14.7,9.6-37,9.6-49.4-4.1c18.4,0,32.7,2,51.3-30.4c8.6-15,6.5-24.1,24.4-37.9C438.4,223.2,450.2,232.1,450.8,236.9"></path>
					<path class="st0" d="M450.8,235.4c-1.5,0.1-3.1,0.4-4.5,0.9c-2.7,0.8-5.4,1.8-7.6,3.5c-3.4,2.6-5.2,6.2-6.1,10.3       c-0.9,4.4-1.4,9-2.4,13.4c-0.8,3.3-1.6,6.5-2.8,9.6c-3.1,8.2-8.7,15.1-15.3,20.7c-4.4,3.7-9.1,7.3-14.3,9.8       c-4.2,2-8.9,3.3-13.6,3.8c-9.5,1-19.6-1.2-26.9-7.6c-0.9-0.8-1.8-1.7-2.6-2.6c-0.4,0.9-0.7,1.7-1.1,2.6       c6.8,0,13.8,0.3,20.5-1.3c7.8-1.9,14.4-6.5,19.8-12.4c4-4.4,7.4-9.3,10.5-14.3c2.7-4.5,5-9.1,7-13.9c1.5-3.7,2.9-7.5,4.8-11.1       c2.3-4.2,5.3-7.9,8.9-11.2c2.2-2,4.6-4.3,7.3-5.7c2-1,4.4-1.2,6.6-0.8c3.8,0.7,7.9,3,9.8,6.3c0.4,0.6,0.5,0.9,0.6,1.7       c0.1,0.8,1.1,1.3,1.9,1.1c0.9-0.2,1.2-1,1.1-1.9c-0.2-1.7-1.4-3.2-2.5-4.5c-1.4-1.6-3.3-3-5.2-3.9c-4.6-2.4-10-2.8-14.6-0.2       c-2.7,1.5-5.1,3.8-7.4,6c-2,1.8-3.8,3.8-5.4,5.9c-2.7,3.5-4.7,7.4-6.4,11.4c-1.7,4-3.2,8.1-5.1,12c-2.7,5.6-6.1,10.9-9.8,15.9       c-5.1,6.8-11.5,13-19.6,15.8c-6.5,2.2-13.2,2.1-20.1,2.1c-0.9,0-1.8,0-2.7,0c-1.4,0-1.9,1.6-1.1,2.6       c6.8,7.4,16.7,11.1,26.7,11.3c5,0.1,10-0.7,14.7-2.3c5.2-1.7,9.8-4.5,14.3-7.7c8.1-5.8,15.5-12.9,20-21.9       c3.4-6.9,5.3-14.5,6.4-22.1c0.6-4,0.9-8.3,3.2-11.8c2.6-3.9,7.7-5.7,12.1-6.4c0.2,0,0.3-0.1,0.5-0.1c-0.3,0,0.1,0,0.1,0       c0.1,0,0.2,0,0.4,0C452.8,238.3,452.8,235.3,450.8,235.4L450.8,235.4z"></path>
				</g>
				<path class="st0" d="M502.5,209.8c-5.1,2.4-10.6,3.9-16.3,3.8c-2.8,0-5.4-0.3-8-1.4c-2.6-1.1-4.9-2.6-7.2-4.2      c-3.1-2.2-6-4.7-9-7.1c-0.3-0.3-0.7-0.3-1,0c-0.3,0.2-0.5,0.6-0.2,1c2.7,5.9,6.3,11.7,10.6,16.6c2.8,3.1,6.3,6.2,10.6,7.1      c4.9,1,9.7-0.8,13.4-4c3.4-3,5.6-6.9,8.2-10.5C504,210.2,503.1,209.6,502.5,209.8z"></path>
				<path class="st0" d="M521.2,138.3c-1-3.6-2.6-7.3-5.4-9.8c-3.3-2.9-8.1-3.5-12.2-2.1c-3.7,1.2-6.1,4-8.9,6.5      c-1.1,1-2.1,1.7-3.6,2c-0.5,0.1-1.5,0.1-2.3-0.1c-0.9-0.2-1.7-0.5-2.4-0.9c-3.1-1.8-5.2-5.3-8.2-7.4c-3.9-2.8-9.5-3.4-13.9-1.5      c-4.1,1.8-6.1,5.7-7.8,9.6c-1.6,3.8-3,7.8-4.2,11.8c-1.7,5.8-3.2,11.7-4.6,17.6c-0.5,1.5-0.8,3.1-1.2,4.6      c-0.5,1.8-0.9,3.7-1.4,5.5c-0.2,0.8,0.2,1.5,0.9,1.8c2.1,3.4,5.1,6.3,8,8.8c3.6,3,7.5,5.6,11.7,7.6c4.9,2.4,10.3,4.4,15.7,5.2      c5.4,0.8,10.9,0.9,16.3-0.1c2.7-0.5,5.3-1.2,7.7-2.4c2.3-1.1,4.5-2.6,6.6-4c2.1-1.5,4.3-3,6.2-4.8c1.2-1.1,2.8-2.5,3.1-4.1      c0.4-1.7,0.4-3.7,0.6-5.4c0.2-1.8,0.3-3.6,0.4-5.5c0-0.6,0.1-1.3,0.1-1.9c0-0.1,0-0.1,0-0.2c0.1-0.2,0.1-0.4,0-0.6      c0.1-2.5,0.2-5,0.3-7.5C522.9,153.3,523.2,145.5,521.2,138.3z M448.6,172.6c0.4-1.6,0.7-3.2,1.1-4.8c0.1-0.4,0.2-0.9,0.3-1.3      c0.2-0.6,0.3-1.3,0.5-1.9c5.2-3,11-4.6,16.8-5.5c6.2-1,12.6-1.2,18.8-0.7c9.6,0.6,19.3,3,27.9,7.6c1.3,0.7,2.7,1.5,3.9,2.4      c0.2,0.2,0.5,0.3,0.7,0.5c0.1,0.1,0.4,0.3,0.5,0.3c0.1,0.1,0.2,0.1,0.2,0.2c-0.3,3-0.5,6-0.8,9c-4.3-2.2-9.1-3.8-13.8-4.9      c-5.7-1.4-11.5-2.2-17.3-2.5c-5.5-0.3-11-0.1-16.5,0.1c-5.2,0.2-10.4,0.5-15.6,1c-2.1,0.2-4.1,0.3-6.2,0.5      C449,172.5,448.8,172.5,448.6,172.6z M452.9,155c1.2-4.5,2.4-8.9,3.9-13.3c1.2-3.5,2.4-7,4.4-10.2c1-1.6,2.3-3,4-3.8      c2-1,4.6-1.1,6.8-0.7c3.8,0.7,6.2,3.5,8.8,6.2c2.6,2.7,5.9,5,9.9,4.7c3.5-0.2,5.8-2.7,8.2-5c1.2-1.2,2.4-2.2,3.9-3      c1.8-0.9,3.8-1.2,5.9-1.1c3.5,0.2,6,2.4,7.6,5.5c1.5,2.9,2.4,6.2,2.9,9.5c0,0.2,0,0.3,0.1,0.5c0,0,0,0.1,0,0.1c0,0,0,0.1,0,0.1      c0,0.3,0.1,0.6,0.1,0.9c0,0.5,0.1,0.9,0.1,1.4c0.1,1.6,0.1,3.2,0.2,4.7c0.1,4.7,0,9.5-0.2,14.2c-1.8-1.2-3.7-2.3-5.6-3.2      c-5.6-2.8-11.6-4.7-17.7-5.9c-8.2-1.6-16.6-1.8-24.9-1c-4.2,0.4-8.5,1.1-12.6,2.3c-1.9,0.6-3.8,1.3-5.7,2      c-0.6,0.2-1.1,0.5-1.7,0.8C452,158.8,452.4,156.9,452.9,155z M517.9,182c-0.4,0.6-1.2,1.3-1.9,1.9c-1.8,1.6-3.8,3.1-5.8,4.5      c-2,1.4-4.1,2.8-6.4,3.9c-4.6,2.3-10.1,2.8-15.1,2.7c-10.1-0.1-20-3.7-28.4-9.4c-3-2-5.8-4.4-8.3-7c-0.5-0.5-0.9-1-1.4-1.5      c-0.2-0.2-0.4-0.4-0.6-0.7c-0.1-0.1-0.2-0.2-0.3-0.3c0,0-0.1-0.1-0.1-0.1c0,0,0,0,0,0c-0.1-0.1-0.2-0.3-0.3-0.4      c1.5-0.1,3-0.3,4.4-0.4c5-0.4,10-0.7,15-1c11-0.5,21.9-0.7,32.8,1.6c5.7,1.2,11.5,2.9,16.6,5.8C518.1,181.7,518,181.9,517.9,182      z"></path>
				<path class="st2" d="M499.1,345.8c-2.5-0.4-5-0.4-7.5-0.2c-2.1-5.2-5.3-11.1-11.3-11.8c-3-0.4-6.4,1-8,3.7      c-1.5,2.5-1.2,5.7-0.7,8.4c0.6,2.7,1.6,5.3,2.3,7.9c0,0.1,0,0.1,0.1,0.2c-1,1-2.1,2.2-2.5,2.9l-12.8,15l-0.1,0.2      c-3.2,4.9-4.7,10.4-4.7,17.2c0,16.1,15.2,34.7,37.7,36.6c1.1,0.1,2.1,0.1,3,0.1c6.3,0,10.6-1.9,14.9-4.6      c0,0,16.5-13.3,17.8-14.5c5.7-5.3,8.7-13,8.7-22.4C536.1,365.1,520.5,348.9,499.1,345.8z M477.9,340.2c5-2.7,7.4,5.8,7.6,6.4      c0,0,0,0,0,0c-2.4,0.7-4.7,1.8-6.7,3.1C477.6,346.5,475.7,341.4,477.9,340.2z M507.8,418.8c-4.4,2.8-8.8,4.6-15.9,4      c-16.5-1.4-35-15.5-35-33.6c0-6.1,1.3-11,4.1-15.4l5.8-6.8c-0.7,2.8-1.1,5.7-1.1,8.8c0,16.3,16.6,36,38.7,37.9      c1.2,0.1,2.3,0.1,3.4,0.1c2.4,0,4.6-0.2,6.8-0.7L507.8,418.8z M525.3,404.5c-5,4.6-12.2,6.7-20.5,6c-16.6-1.4-36-16.9-36-34.9      c0-8.8,3.2-16.3,9-21.3c4.4-3.8,10.2-5.9,16.4-5.9c1.4,0,2.9,0.1,4.4,0.3c20,2.9,34.5,17.8,34.5,35.5      C533.1,392.8,530.4,399.8,525.3,404.5z"></path>
				<path class="st4" d="M478.7,339.9c-0.5,0.3-0.9,0.6-1.4,0.8c-5.2,1.8-11.1-0.1-14-4.8c-1.3-2-1.9-4.5-1.3-6.8      c0.6-2.6,2.3-4.9,4.2-6.7c3.8-3.5,9.3-4.8,13.9-1.8c4.1,2.7,7.3,8.1,5,12.8c-0.3,0.6-0.6,1.1-1,1.6c0.9,0.5,1.7,1.1,2.4,1.9      c0.3-0.5,0.7-1,0.9-1.5c1.3-2.4,1.8-5.1,1.2-7.7c-0.7-3.3-3-6.4-5.5-8.6c-2.5-2.1-5.6-3.4-9-3.3c-3.1,0.1-6.1,1.3-8.6,3.1      c-2.6,2-4.7,4.6-5.9,7.7c-1.2,2.9-1,6.2,0.3,9.1c3,7,11.5,10.3,18.5,7.7c0,0,0,0,0.1,0c0.1,0,0.2-0.1,0.3-0.1      c1.3-0.7,2.6-1.5,3.8-2.4C481.5,339.9,480.2,339.4,478.7,339.9z"></path>
			</g>
			<path class="st2" d="M478.7,328.4c-4.6,1.2-3.3,1-8,1.3c-4.2,0.3-8.4,0.1-12.4-0.7c-6.7-1.3-13.2-4.8-16.3-11.2     c-1.7-3.5-2.3-7.3-2.2-11.1l3.4,9.1l3.6,6.2h2.4c1.3,1,2.7,1.8,4.1,2.4c3.1,1.3,6.7,2,10.1,2.2c4.2,0.3,8.4,0.1,12.6-0.5     c4.4-0.6,3.2,0.4,3.2,0.4L478.7,328.4z"></path>
		</g>
	</g>
</g>
<g id="Layer_3">
</g>
</svg>
