<?xml version="1.0" encoding="utf-8"?>
<!-- Generator: Adobe Illustrator 24.3.0, SVG Export Plug-In . SVG Version: 6.00 Build 0)  -->
<svg version="1.1" id="Layer_1" xmlns="http://www.w3.org/2000/svg" xmlns:xlink="http://www.w3.org/1999/xlink" x="0px" y="0px"
	 viewBox="0 0 841.9 257.2" style="enable-background:new 0 0 841.9 257.2;" xml:space="preserve">
<style type="text/css">
	.st0{fill:#0D3C8C;}
</style>
<g>
	<g>
		<path class="st0" d="M19.7,57.7c0-1.3,1.1-2.4,2.4-2.4h0.3h15.3c9.6,0,17.4,7.8,17.4,17.5c0,5.5-2.7,10.4-6.7,13.6
			c7.9,2.7,13.7,10.1,13.7,18.9c0,11.1-9,20-20,20H22.4h-0.3H22c-1.3,0-2.3-1.1-2.3-2.4V57.7z M37.7,85.2c6.9,0,12.5-5.6,12.5-12.4
			c0-7-5.6-12.6-12.5-12.6H24.6v25H37.7z M42.1,120.4c8.3,0,15-6.7,15.1-15.1c-0.1-8.3-6.8-15.1-15.1-15.1H24.6v30.2H42.1z"/>
		<path class="st0" d="M76,57.7c0-1.3,1.1-2.4,2.4-2.4h0.2h35.8c1.4,0,2.4,1.1,2.4,2.4c0,1.4-1,2.5-2.4,2.5H80.9v27.7h29.3
			c1.3,0,2.4,1.1,2.4,2.5c0,1.3-1.1,2.4-2.4,2.4H80.9v27.6h33.5c1.4,0,2.4,1.1,2.4,2.5c0,1.3-1,2.4-2.4,2.4H78.7h-0.3h-0.2
			c-1.2-0.1-2.2-1.1-2.2-2.4V57.7z"/>
		<path class="st0" d="M150.8,91.7l-23.5-32.1c-0.7-1.1-0.5-2.7,0.5-3.4c1.1-0.9,2.7-0.7,3.4,0.4l21.9,30.1l22-30.1
			c0.7-1.1,2.3-1.3,3.4-0.4c1.1,0.7,1.3,2.3,0.5,3.4l-23.4,31.9v31.4c0,1.3-1,2.4-2.4,2.4c-1.3,0-2.4-1.1-2.4-2.4V91.7z"/>
		<path class="st0" d="M272.1,65.6v57.3c0,1.3-1.1,2.4-2.4,2.4s-2.4-1.1-2.4-2.4V58.7c-0.3-1,0-2,0.9-2.7c1.1-0.7,2.7-0.5,3.4,0.6
			l42.4,58.8v-57c0-1.3,1.1-2.4,2.4-2.4c1.4,0,2.5,1.1,2.5,2.4v64.5c0,1.3-1.1,2.4-2.5,2.4c-0.8,0-1.4-0.3-1.9-0.9
			c-0.1-0.1-0.3-0.2-0.4-0.4L272.1,65.6z"/>
		<path class="st0" d="M341.7,125.3h-0.4c-1.2-0.1-2.2-1.1-2.2-2.4V57.7c0-1.3,1.1-2.4,2.4-2.4h0.3h12.8c19.3,0,35,15.8,35,35.1
			c0,19.3-15.7,34.9-35,34.9H341.7z M354.6,120.4c16.6,0,30.1-13.4,30.1-30c0-16.7-13.5-30.1-30.1-30.2H344v60.2H354.6z"/>
		<path class="st0" d="M453.1,60.2H432c-1.3,0-2.4-1.1-2.4-2.5c0-1.3,1.1-2.4,2.4-2.4h47c1.3,0,2.4,1.1,2.4,2.4
			c0,1.4-1.1,2.5-2.4,2.5h-21.1v62.7c0,1.3-1.1,2.4-2.4,2.4c-1.3,0-2.4-1.1-2.4-2.4V60.2z"/>
		<path class="st0" d="M534.6,92.7h-36v30.2c0,1.3-1.1,2.4-2.5,2.4c-1.3,0-2.4-1.1-2.4-2.4V57.7c0-1.3,1.1-2.4,2.4-2.4
			c1.4,0,2.5,1.1,2.5,2.4v30.2h36V57.7c0-1.3,1.1-2.4,2.4-2.4c1.4,0,2.5,1.1,2.5,2.4v65.2c0,1.3-1.1,2.4-2.5,2.4
			c-1.3,0-2.4-1.1-2.4-2.4V92.7z"/>
		<path class="st0" d="M559.6,57.7c0-1.3,1.1-2.4,2.4-2.4h0.2H598c1.4,0,2.4,1.1,2.4,2.4c0,1.4-1,2.5-2.4,2.5h-33.5v27.7h29.3
			c1.3,0,2.4,1.1,2.4,2.5c0,1.3-1.1,2.4-2.4,2.4h-29.3v27.6H598c1.4,0,2.4,1.1,2.4,2.5c0,1.3-1,2.4-2.4,2.4h-35.7H562h-0.2
			c-1.2-0.1-2.2-1.1-2.2-2.4V57.7z"/>
		<path class="st0" d="M696.9,65.3l-22.4,31.1c-0.5,0.8-1.3,1.1-2,1.1h-0.2c-0.9,0-1.6-0.3-2.1-1.1l-22.4-31v57.5
			c0,1.3-1.1,2.4-2.4,2.4c-1.4,0-2.5-1.1-2.5-2.4V58.1c0-0.8,0.4-1.5,1-1.9c0-0.1,0.1-0.1,0.2-0.2c1.1-0.7,2.6-0.5,3.4,0.6
			l24.9,34.5l24.8-34.5c0.7-1.1,2.3-1.3,3.4-0.6c0.3,0.3,0.5,0.5,0.7,0.8c0.2,0.4,0.4,0.9,0.4,1.3v64.8c0,1.3-1.1,2.4-2.4,2.4
			c-1.4,0-2.4-1.1-2.4-2.4V65.3z"/>
		<path class="st0" d="M758,107.2h-31.9l-6.2,16.5c-0.4,1-1.3,1.6-2.3,1.6c-0.2,0-0.6-0.1-0.9-0.1c-1.2-0.5-1.9-2-1.4-3.2l24.3-64.9
			c0.4-0.9,1.4-1.5,2.4-1.5c1.1,0,2.1,0.6,2.4,1.5l24.3,64.9c0.5,1.2-0.1,2.7-1.3,3.2c-0.4,0-0.6,0.1-0.9,0.1
			c-0.9,0-1.9-0.6-2.3-1.6L758,107.2z M727.9,102.3h28.3l-14.1-37.6L727.9,102.3z"/>
		<path class="st0" d="M779.8,57.7c0-1.3,1.1-2.4,2.4-2.4h0.3H802c11,0,19.9,9,19.9,20c0,11-8.9,19.9-19.9,19.9l-17.3,0.2v27.5
			c0,1.3-1.1,2.4-2.5,2.4c-1.3,0-2.4-1.1-2.4-2.4V57.7z M802,90.5c8.3-0.1,15.1-6.9,15.1-15.2c0-8.3-6.8-15.1-15.1-15.1h-17.3v30.3
			H802z"/>
	</g>
	<g>
		<path class="st0" d="M644,168.9L644,168.9c-0.6,0-1.1-0.5-1.1-1v-28c0-0.6,0.5-1,1-1c0.6,0,1.1,0.5,1.1,1v26.9h14.4
			c0.6,0,1.1,0.5,1.1,1.1c0,0.6-0.5,1-1.1,1H644z"/>
		<path class="st0" d="M677.6,138.5c8,0,14.3,6.8,14.4,15.2c0,8.4-6.3,15.2-14.4,15.2c-8.1,0-14.4-6.8-14.5-15.2
			C663.2,145.3,669.5,138.5,677.6,138.5z M677.6,166.8c6.6,0,12.2-5.8,12.2-13.1c0-7.4-5.6-13.1-12.2-13.1
			c-6.8,0-12.4,5.7-12.4,13.1C665.2,161.1,670.8,166.8,677.6,166.8z"/>
		<path class="st0" d="M702.8,143.3v24.6c0,0.6-0.5,1-1,1c-0.6,0-1-0.5-1-1v-27.5c-0.1-0.4,0-0.9,0.4-1.2c0.5-0.3,1.2-0.2,1.5,0.3
			l18.2,25.2v-24.4c0-0.6,0.5-1,1-1c0.6,0,1.1,0.5,1.1,1v27.7c0,0.6-0.5,1-1.1,1c-0.3,0-0.6-0.1-0.8-0.4c0,0-0.1-0.1-0.2-0.2
			L702.8,143.3z"/>
		<path class="st0" d="M734.5,168.9h-0.2c-0.5,0-0.9-0.5-0.9-1v-28c0-0.6,0.5-1,1-1h0.1h5.5c8.3,0,15,6.8,15,15c0,8.3-6.7,15-15,15
			H734.5z M740,166.8c7.1,0,12.9-5.7,12.9-12.9c0-7.2-5.8-12.9-12.9-12.9h-4.5v25.8H740z"/>
		<path class="st0" d="M776.7,138.5c8,0,14.3,6.8,14.4,15.2c0,8.4-6.3,15.2-14.4,15.2c-8.1,0-14.4-6.8-14.5-15.2
			C762.2,145.3,768.6,138.5,776.7,138.5z M776.7,166.8c6.6,0,12.2-5.8,12.2-13.1c0-7.4-5.6-13.1-12.2-13.1
			c-6.8,0-12.4,5.7-12.4,13.1C764.3,161.1,769.8,166.8,776.7,166.8z"/>
		<path class="st0" d="M801.8,143.3v24.6c0,0.6-0.5,1-1,1c-0.6,0-1-0.5-1-1v-27.5c-0.1-0.4,0-0.9,0.4-1.2c0.5-0.3,1.2-0.2,1.5,0.3
			l18.2,25.2v-24.4c0-0.6,0.5-1,1-1c0.6,0,1.1,0.5,1.1,1v27.7c0,0.6-0.5,1-1.1,1c-0.3,0-0.6-0.1-0.8-0.4c0,0-0.1-0.1-0.2-0.2
			L801.8,143.3z"/>
	</g>
	<g>
		<path class="st0" d="M181.6,40.8c-0.1,6.2,3.6,10.5,9.2,10.6c5.7,0.1,9.6-3.9,9.7-10.1c0.2-6.2-3.6-10.5-9.2-10.6
			C185.5,30.7,181.7,34.6,181.6,40.8z"/>
		<path class="st0" d="M221.2,36.9c0-4.3-2.6-7.2-6.5-7.2c-4,0-6.7,2.9-6.7,7.3c0,4.4,2.7,7.3,6.7,7.2
			C218.7,44.1,221.2,41.2,221.2,36.9z"/>
		<path class="st0" d="M257.1,54.9c0-3.8-2.1-6-5.6-6c-3.4,0-5.8,2.7-5.7,6.3c0.1,3.6,2.5,6.1,5.7,6.1
			C254.9,61.2,257.1,58.7,257.1,54.9z"/>
		<path class="st0" d="M234.3,36.3c-3.5,0-5.6,2.5-5.5,6.4c0.1,3.6,2.4,6.1,5.7,6c3.2-0.1,5.6-2.7,5.6-6.2
			C240.1,38.9,237.7,36.3,234.3,36.3z"/>
		<path class="st0" d="M181.6,40.8c0.1-6.2,3.9-10.2,9.7-10.1c5.6,0.1,9.4,4.4,9.2,10.6c-0.2,6.2-4,10.2-9.7,10.1
			C185.2,51.4,181.4,47,181.6,40.8z"/>
		<path class="st0" d="M217.7,53.4c-18.8,0-34,15.2-34,34c0,17,20.9,60.8,29.9,79c1.7,3.4,6.5,3.4,8.1,0c9-18.2,29.9-62,29.9-79
			C251.7,68.6,236.4,53.4,217.7,53.4z M217.7,109.7c-10.8,0-19.6-9.3-19.6-20.8s8.8-20.8,19.6-20.8c10.8,0,19.6,9.3,19.6,20.8
			S228.5,109.7,217.7,109.7z"/>
		<path class="st0" d="M221.2,36.9c0,4.3-2.5,7.2-6.4,7.2c-4.1,0.1-6.7-2.8-6.7-7.2c0-4.4,2.7-7.3,6.7-7.3
			C218.6,29.7,221.2,32.6,221.2,36.9z"/>
		<path class="st0" d="M257.1,54.9c0,3.8-2.2,6.4-5.6,6.4c-3.2,0-5.6-2.5-5.7-6.1c-0.1-3.6,2.3-6.3,5.7-6.3
			C254.9,48.9,257,51.1,257.1,54.9z"/>
		<path class="st0" d="M234.3,36.3c3.4,0,5.8,2.6,5.8,6.2c0,3.5-2.4,6.1-5.6,6.2c-3.3,0.1-5.6-2.4-5.7-6
			C228.7,38.8,230.8,36.3,234.3,36.3z"/>
		<path class="st0" d="M227.4,78.6c-3.4,2-11.3,6.8-12.3,7.8c-1,1-5.7,8.9-7.8,12.3c-0.2,0.4,0.3,0.9,0.6,0.6
			c3.4-2,11.3-6.8,12.3-7.8s5.7-8.9,7.8-12.3C228.3,78.9,227.8,78.4,227.4,78.6z M219.3,90.6c-0.9,0.9-2.3,0.9-3.2,0
			c-0.9-0.9-0.9-2.3,0-3.2c0.9-0.9,2.3-0.9,3.2,0C220.1,88.3,220.1,89.7,219.3,90.6z"/>
	</g>
</g>
<g>
	<path class="st0" d="M26.1,199.4c-1.7,0.8-2.5,1.8-2.7,3.2c0.6,0.2,1,0.6,0.8,1.5l-0.2,0.9c-0.2,0.8-1,1.4-1.7,1.4
		c-0.8,0-1.3-0.6-1.1-1.4l0.2-1.1c0.5-2.4,1.1-3.6,2-4.4c1-0.8,2.1-1.3,2.5-1.3c0.3,0,0.6,0.2,0.5,0.6
		C26.5,199,26.4,199.3,26.1,199.4z M33.7,199.4c-1.7,0.8-2.5,1.8-2.7,3.2c0.6,0.2,1,0.6,0.8,1.5l-0.2,0.9c-0.2,0.8-1,1.4-1.7,1.4
		c-0.8,0-1.3-0.6-1-1.4l0.2-1.1c0.5-2.4,1.1-3.6,2-4.4c1-0.8,2.1-1.3,2.5-1.3c0.3,0,0.6,0.2,0.5,0.6C34.1,199,33.9,199.3,33.7,199.4
		z"/>
	<path class="st0" d="M38.3,225.3c-1.5-1.6-2.3-3.7-2.3-6c0-0.6,0-1.3,0.2-1.9c1-5.5,5.9-10,11.3-10.1c2.4,0,4.5,0.9,5.9,2.5
		c0.5,0.5,0.9,1,1.2,1.7l0.6-3.3c0.1-0.5,0.6-0.9,1.1-0.8c0.5,0.1,0.9,0.6,0.8,1.2l-3.3,18.5c-0.1,0.5-0.5,0.8-1,0.8
		c0,0-0.1,0-0.2,0c-0.5-0.1-0.9-0.6-0.8-1.2l0.5-2.7c-2.1,2.4-5,3.8-8.2,3.9C41.8,227.7,39.7,226.8,38.3,225.3z M38,219.2
		c0,3.8,2.6,6.5,6.2,6.5c4.2,0,8.6-3.7,9.4-8.4c0.1-0.5,0.1-1,0.1-1.6c0-3.8-2.5-6.5-6.2-6.5h0c-4.2,0-8.5,3.8-9.3,8.4
		C38,218.2,38,218.7,38,219.2z"/>
	<path class="st0" d="M80,215.5c0-0.4,0.1-0.8,0.1-1.1c0-2.9-2-5-5.2-5.1c-3.4,0-7,2.9-7.6,6.5l-1.9,11.2c0,0,0,0.1,0,0.2l0,0
		c0,0,0,0.1,0,0.1c0,0,0,0,0,0c0,0,0,0.1-0.1,0.1c0,0,0,0,0,0c0,0,0,0-0.1,0.1c0,0,0,0,0,0c0,0-0.1,0-0.1,0c0,0,0,0,0,0
		c0,0-0.1,0-0.1,0c0,0,0,0-0.1,0s0,0-0.1,0s-0.1,0-0.1,0c0,0-0.1,0-0.1,0s0,0-0.1,0c-0.5-0.1-0.9-0.6-0.8-1.2l2-11.1c0,0,0,0,0,0
		l1.3-7.4c0.1-0.5,0.6-0.9,1.2-0.8c0.6,0.1,0.9,0.6,0.8,1.1l-0.3,1.6c1.8-1.7,4.2-2.8,6.6-2.8c2.1,0,3.9,0.8,5.2,2.1
		c1.3,1.3,2,3,2,5c0,0.5,0,1-0.1,1.5l-2,11.1c-0.1,0.5-0.5,0.8-1,0.8c0,0,0,0-0.1,0c-0.5-0.1-0.9-0.6-0.8-1.2L80,215.5z"/>
	<path class="st0" d="M101.7,225.3c-1.5-1.6-2.3-3.7-2.3-6c0-0.6,0-1.3,0.2-1.9c1-5.5,5.9-10,11.3-10.1c2.4,0,4.5,0.9,5.9,2.5
		c0.5,0.5,0.9,1,1.2,1.7l0.6-3.3c0.1-0.5,0.6-0.9,1.1-0.8c0.5,0.1,0.9,0.6,0.8,1.2l-3.3,18.5c-0.1,0.5-0.5,0.8-1,0.8
		c0,0-0.1,0-0.2,0c-0.5-0.1-0.9-0.6-0.8-1.2l0.5-2.7c-2.1,2.4-5,3.8-8.2,3.9C105.2,227.7,103.1,226.8,101.7,225.3z M101.4,219.2
		c0,3.8,2.6,6.5,6.2,6.5c4.2,0,8.6-3.7,9.4-8.4c0.1-0.5,0.1-1,0.1-1.6c0-3.8-2.5-6.5-6.2-6.5h0c-4.2,0-8.5,3.8-9.3,8.4
		C101.4,218.2,101.4,218.7,101.4,219.2z"/>
	<path class="st0" d="M133.8,199.6l-4.8,27.3c-0.1,0.5-0.5,0.8-1,0.8c0,0-0.1,0-0.2,0c-0.6-0.1-0.9-0.6-0.8-1.2l4.8-27.3
		c0.1-0.6,0.6-1,1.2-0.8C133.5,198.5,133.9,199,133.8,199.6z"/>
	<path class="st0" d="M148.9,208.2c0,0.5-0.5,1-1,1h-5.6l-2.7,15c0,0.1,0,0.2,0,0.3c0,0.7,0.4,1,1.1,1.1c0.6,0,1.1,0.5,1.1,1
		c0,0.6-0.5,1-1.1,1c-0.9,0-1.7-0.3-2.3-0.9c-0.6-0.6-0.9-1.4-0.9-2.2c0-0.2,0-0.4,0-0.6l2.7-14.7h-2.7c-0.6,0-1-0.5-1-1
		c0-0.6,0.5-1,1-1h3.1l1.3-8c0.1-0.5,0.6-0.9,1.2-0.8c0.5,0.1,0.9,0.6,0.8,1.2l-1.3,7.7h5.3C148.4,207.2,148.9,207.6,148.9,208.2z"
		/>
	<path class="st0" d="M151.6,217.2c1-5.6,6-10,11.6-10.1c2.4,0,4.5,0.9,6,2.5c1.5,1.6,2.4,3.7,2.4,6.1c0,0.4,0,0.7-0.1,1.1
		c0,0.1,0,0.2,0,0.3c-0.1,0.4-0.5,0.8-1,0.8h-17c-0.1,0.4-0.1,0.8-0.1,1.3c0,3.8,2.6,6.5,6.4,6.6c2.8,0,5.6-1.5,7.4-3.8
		c0.4-0.4,1-0.5,1.4-0.1c0.4,0.3,0.5,0.9,0.1,1.3c-2.1,2.7-5.5,4.6-9,4.6c0,0,0,0,0,0c-2.4,0-4.5-0.9-6-2.5
		c-1.5-1.6-2.4-3.7-2.4-6.1C151.5,218.5,151.5,217.9,151.6,217.2z M154.1,215.8h15.5c0,0,0,0,0-0.1c0-3.8-2.6-6.5-6.4-6.6
		C159.4,209.1,155.6,212,154.1,215.8z"/>
	<path class="st0" d="M177.5,226.5l1.6-9.2c0,0,0,0,0,0l1.6-9.2c0.1-0.5,0.6-0.9,1.1-0.8s0.9,0.6,0.8,1.2l-0.7,4.2
		c0.1-0.1,0.2-0.3,0.3-0.3c2-2.4,5-5,8.9-5c0.5,0,1,0.4,1,1c0,0.5-0.5,1-1,1c-2.6,0-4.9,1.6-6.7,3.4c-1.8,1.9-2.9,4-3.3,4.8
		c0,0.1-0.1,0.2-0.1,0.3l-1.6,9.1c-0.1,0.5-0.5,0.8-1,0.8c0,0-0.1,0-0.2,0C177.8,227.6,177.4,227.1,177.5,226.5z"/>
	<path class="st0" d="M211.9,215.5c0-0.4,0.1-0.8,0.1-1.1c0-2.9-2-5-5.2-5.1c-3.4,0-7,2.9-7.6,6.5l-1.9,11.2c0,0,0,0.1,0,0.2l0,0
		c0,0,0,0.1,0,0.1c0,0,0,0,0,0c0,0,0,0.1-0.1,0.1c0,0,0,0,0,0c0,0,0,0-0.1,0.1c0,0,0,0,0,0c0,0-0.1,0-0.1,0c0,0,0,0,0,0
		c0,0-0.1,0-0.1,0c0,0,0,0-0.1,0s0,0-0.1,0s-0.1,0-0.1,0c0,0-0.1,0-0.1,0s0,0-0.1,0c-0.5-0.1-0.9-0.6-0.8-1.2l2-11.1c0,0,0,0,0,0
		l1.3-7.4c0.1-0.5,0.6-0.9,1.2-0.8c0.6,0.1,0.9,0.6,0.8,1.1l-0.3,1.6c1.8-1.7,4.2-2.8,6.6-2.8c2.1,0,3.9,0.8,5.2,2.1
		c1.3,1.3,2,3,2,5c0,0.5,0,1-0.1,1.5l-2,11.1c-0.1,0.5-0.5,0.8-1,0.8c0,0,0,0-0.1,0c-0.5-0.1-0.9-0.6-0.8-1.2L211.9,215.5z"/>
	<path class="st0" d="M221.7,225.3c-1.5-1.6-2.3-3.7-2.3-6c0-0.6,0-1.3,0.2-1.9c1-5.5,5.9-10,11.3-10.1c2.4,0,4.5,0.9,5.9,2.5
		c0.5,0.5,0.9,1,1.2,1.7l0.6-3.3c0.1-0.5,0.6-0.9,1.1-0.8c0.5,0.1,0.9,0.6,0.8,1.2l-3.3,18.5c-0.1,0.5-0.5,0.8-1,0.8
		c0,0-0.1,0-0.2,0c-0.5-0.1-0.9-0.6-0.8-1.2l0.5-2.7c-2.1,2.4-5,3.8-8.2,3.9C225.2,227.7,223.1,226.8,221.7,225.3z M221.4,219.2
		c0,3.8,2.6,6.5,6.2,6.5c4.2,0,8.6-3.7,9.4-8.4c0.1-0.5,0.1-1,0.1-1.6c0-3.8-2.5-6.5-6.2-6.5h0c-4.2,0-8.5,3.8-9.3,8.4
		C221.4,218.2,221.4,218.7,221.4,219.2z"/>
	<path class="st0" d="M258.2,208.2c0,0.5-0.5,1-1,1h-5.6l-2.7,15c0,0.1,0,0.2,0,0.3c0,0.7,0.4,1,1.1,1.1c0.6,0,1.1,0.5,1.1,1
		c0,0.6-0.5,1-1.1,1c-0.9,0-1.7-0.3-2.3-0.9c-0.6-0.6-0.9-1.4-0.9-2.2c0-0.2,0-0.4,0-0.6l2.7-14.7h-2.7c-0.6,0-1-0.5-1-1
		c0-0.6,0.5-1,1-1h3.1l1.3-8c0.1-0.5,0.6-0.9,1.2-0.8c0.5,0.1,0.9,0.6,0.8,1.2l-1.3,7.7h5.3C257.8,207.2,258.2,207.6,258.2,208.2z"
		/>
	<path class="st0" d="M262.6,226.6l3.2-18.6c0.1-0.5,0.6-0.9,1.2-0.8c0.5,0.1,0.9,0.6,0.8,1.2l-3.3,18.6c-0.1,0.5-0.5,0.8-1,0.8
		c-0.1,0-0.1,0-0.2,0C262.9,227.7,262.5,227.1,262.6,226.6z M267.7,204c0,0-0.1,0-0.2,0c-0.5-0.1-0.9-0.6-0.8-1.2l0.2-1
		c0.1-0.5,0.6-0.9,1.1-0.8c0.6,0.1,0.9,0.6,0.8,1.2l-0.2,0.9C268.7,203.7,268.2,204,267.7,204z"/>
	<path class="st0" d="M290.2,208.8l-11,18.3c0,0,0,0,0,0c0,0-0.1,0.1-0.1,0.1c0,0,0,0,0,0.1c0,0-0.1,0-0.1,0.1c0,0,0,0-0.1,0
		c0,0-0.1,0-0.2,0.1h0c-0.1,0-0.2,0-0.3,0s-0.2,0-0.2,0s0,0,0,0c-0.1,0-0.2-0.1-0.2-0.1c0,0,0,0,0,0c0,0-0.1,0-0.1-0.1c0,0,0,0,0,0
		c0,0-0.1-0.1-0.1-0.1s-0.1-0.1-0.1-0.2c0,0-0.1-0.1-0.1-0.2l-4.5-18.4c-0.1-0.5,0.2-1,0.7-1.2c0.5-0.1,1.1,0.2,1.2,0.8l3.9,16
		l9.7-16.3c0.3-0.5,0.9-0.6,1.4-0.3C290.4,207.7,290.5,208.4,290.2,208.8z"/>
	<path class="st0" d="M294.8,217.2c1-5.6,6-10,11.6-10.1c2.4,0,4.5,0.9,6,2.5c1.5,1.6,2.4,3.7,2.4,6.1c0,0.4,0,0.7-0.1,1.1
		c0,0.1,0,0.2,0,0.3c-0.1,0.4-0.5,0.8-1,0.8h-17c-0.1,0.4-0.1,0.8-0.1,1.3c0,3.8,2.6,6.5,6.4,6.6c2.8,0,5.6-1.5,7.4-3.8
		c0.4-0.4,1-0.5,1.4-0.1c0.4,0.3,0.5,0.9,0.1,1.3c-2.1,2.7-5.5,4.6-9,4.6c0,0,0,0,0,0c-2.4,0-4.5-0.9-6-2.5
		c-1.5-1.6-2.4-3.7-2.4-6.1C294.6,218.5,294.7,217.9,294.8,217.2z M297.3,215.8h15.5c0,0,0,0,0-0.1c0-3.8-2.6-6.5-6.4-6.6
		C302.5,209.1,298.7,212,297.3,215.8z"/>
	<path class="st0" d="M333,223.4c0.4-0.4,1.1-0.5,1.5-0.1c1.2,1.1,3.3,2.4,5.7,2.4c1.6,0,3.2-0.5,4.3-1.2c1.1-0.8,1.8-1.7,2-2.6
		c0.2-1-0.1-1.6-1-2.3c-0.8-0.7-2.3-1.2-4.1-1.5l0,0c-1.8-0.3-3.4-0.8-4.5-1.7c-1.1-0.8-1.8-2.1-1.5-3.7c0.3-1.6,1.4-3,2.9-4
		c1.5-0.9,3.3-1.5,5.2-1.5c2.7,0,4.5,1.3,5.8,2.3c0.4,0.3,0.4,0.9,0,1.4s-1,0.6-1.4,0.3c-1.4-1-2.8-2-4.8-2c-1.5,0-2.9,0.5-3.9,1.1
		c-1,0.7-1.6,1.5-1.8,2.4c-0.2,0.8,0.1,1.4,0.9,2.1c0.8,0.6,2.1,1.1,3.7,1.4l0.1,0c1.9,0.3,3.6,0.9,4.8,1.8c1.2,0.9,1.9,2.3,1.6,4
		c-0.3,1.7-1.5,3.2-3.1,4.2c-1.6,1-3.5,1.6-5.5,1.6c-3.1,0-5.5-1.6-6.9-2.9C332.5,224.5,332.5,223.8,333,223.4z"/>
	<path class="st0" d="M354.6,226.6l3.2-18.6c0.1-0.5,0.6-0.9,1.2-0.8c0.5,0.1,0.9,0.6,0.8,1.2l-3.3,18.6c-0.1,0.5-0.5,0.8-1,0.8
		c-0.1,0-0.1,0-0.2,0C354.9,227.7,354.5,227.1,354.6,226.6z M359.7,204c0,0-0.1,0-0.2,0c-0.5-0.1-0.9-0.6-0.8-1.2l0.2-1
		c0.1-0.5,0.6-0.9,1.1-0.8c0.6,0.1,0.9,0.6,0.8,1.2l-0.2,0.9C360.7,203.7,360.2,204,359.7,204z"/>
	<path class="st0" d="M367.2,225.3c-1.4-1.5-2.3-3.6-2.3-6c0-0.6,0.1-1.3,0.2-1.9c1-5.5,6-10.1,11.3-10.1c2.4,0,4.5,0.9,6,2.5
		c0.5,0.5,0.9,1.1,1.2,1.7l0.6-3.4c0.1-0.5,0.6-0.9,1.1-0.8c0.6,0.1,1,0.6,0.8,1.2l-1.6,9.3l-1.5,8.7c-1,5.3-5.9,9.5-11.2,9.6
		c-1.6,0-3-0.4-4.2-1c-0.5-0.3-0.7-0.8-0.4-1.3c0.3-0.5,0.8-0.6,1.3-0.4c0.9,0.5,2,0.8,3.3,0.8c4.2,0,8.4-3.6,9.2-7.9l0.3-2
		c-2.1,2.3-5.1,3.8-8.1,3.8c0,0,0,0,0,0C370.7,227.8,368.6,226.9,367.2,225.3z M366.9,219.3c0,3.9,2.6,6.5,6.3,6.5
		c4.2,0,8.5-3.7,9.3-8.4c0.1-0.5,0.2-1,0.2-1.5c0-3.9-2.6-6.6-6.3-6.6h0c-4.1,0-8.5,3.8-9.2,8.4
		C366.9,218.3,366.9,218.8,366.9,219.3z"/>
	<path class="st0" d="M392.7,226.6l4.8-27.3c0.1-0.6,0.6-1,1.2-0.8c0.5,0.1,0.9,0.6,0.8,1.2l-1.8,10.4c1.8-1.7,4.2-2.8,6.8-2.9
		c2.1,0,3.9,0.8,5.3,2.1c1.3,1.3,2.1,3.2,2.1,5.2c0,0.5,0,1-0.1,1.5l-2,11c-0.1,0.5-0.5,0.8-1,0.8c-0.1,0-0.1,0-0.2,0
		c-0.5-0.1-0.9-0.6-0.8-1.2l2-11c0-0.4,0.1-0.8,0.1-1.1c0-3-2.1-5.2-5.3-5.2c-3.6,0-7.2,3.1-7.9,6.7l-2,11v0c0,0,0,0.1,0,0.2
		c0,0,0,0,0,0c0,0,0,0.1,0,0.1c0,0,0,0-0.1,0c0,0,0,0.1,0,0.1c0,0,0,0-0.1,0.1c0,0,0,0-0.1,0c0,0,0,0,0,0c0,0-0.1,0-0.1,0.1
		c0,0,0,0-0.1,0c0,0-0.1,0-0.1,0c0,0-0.1,0-0.1,0c0,0-0.1,0-0.1,0s0,0-0.1,0s-0.1,0-0.1,0c0,0,0,0-0.1,0c-0.2,0-0.4-0.1-0.5-0.3
		c-0.2-0.2-0.3-0.5-0.3-0.7C392.6,226.7,392.6,226.6,392.7,226.6z"/>
	<path class="st0" d="M429.4,208.2c0,0.5-0.5,1-1,1h-5.6l-2.7,15c0,0.1,0,0.2,0,0.3c0,0.7,0.4,1,1.1,1.1c0.6,0,1.1,0.5,1.1,1
		c0,0.6-0.5,1-1.1,1c-0.9,0-1.7-0.3-2.3-0.9c-0.6-0.6-0.9-1.4-0.9-2.2c0-0.2,0-0.4,0-0.6l2.7-14.7H418c-0.6,0-1-0.5-1-1
		c0-0.6,0.5-1,1-1h3.1l1.3-8c0.1-0.5,0.6-0.9,1.2-0.8c0.5,0.1,0.9,0.6,0.8,1.2l-1.3,7.7h5.3C429,207.2,429.4,207.6,429.4,208.2z"/>
	<path class="st0" d="M432.5,223.4c0.4-0.4,1.1-0.5,1.5-0.1c1.2,1.1,3.3,2.4,5.7,2.4c1.6,0,3.2-0.5,4.3-1.2c1.1-0.8,1.8-1.7,2-2.6
		c0.2-1-0.1-1.6-1-2.3c-0.8-0.7-2.3-1.2-4.1-1.5l0,0c-1.8-0.3-3.4-0.8-4.5-1.7c-1.1-0.8-1.8-2.1-1.5-3.7c0.3-1.6,1.4-3,2.9-4
		c1.5-0.9,3.3-1.5,5.2-1.5c2.7,0,4.5,1.3,5.8,2.3c0.4,0.3,0.4,0.9,0,1.4s-1,0.6-1.4,0.3c-1.4-1-2.8-2-4.8-2c-1.5,0-2.9,0.5-3.9,1.1
		c-1,0.7-1.6,1.5-1.8,2.4c-0.2,0.8,0.1,1.4,0.9,2.1c0.8,0.6,2.1,1.1,3.7,1.4l0.1,0c1.9,0.3,3.6,0.9,4.8,1.8c1.2,0.9,1.9,2.3,1.6,4
		c-0.3,1.7-1.5,3.2-3.1,4.2c-1.6,1-3.5,1.6-5.5,1.6c-3.1,0-5.5-1.6-6.9-2.9C432,224.5,432.1,223.8,432.5,223.4z"/>
	<path class="st0" d="M453.4,217.2c1-5.6,6-10,11.6-10.1c2.4,0,4.5,0.9,6,2.5c1.5,1.6,2.4,3.7,2.4,6.1c0,0.4,0,0.7-0.1,1.1
		c0,0.1,0,0.2,0,0.3c-0.1,0.4-0.5,0.8-1,0.8h-17c-0.1,0.4-0.1,0.8-0.1,1.3c0,3.8,2.6,6.5,6.4,6.6c2.8,0,5.6-1.5,7.4-3.8
		c0.4-0.4,1-0.5,1.4-0.1c0.4,0.3,0.5,0.9,0.1,1.3c-2.1,2.7-5.5,4.6-9,4.6c0,0,0,0,0,0c-2.4,0-4.5-0.9-6-2.5
		c-1.5-1.6-2.4-3.7-2.4-6.1C453.2,218.5,453.3,217.9,453.4,217.2z M455.9,215.8h15.5c0,0,0,0,0-0.1c0-3.8-2.6-6.5-6.4-6.6
		C461.1,209.1,457.3,212,455.9,215.8z"/>
	<path class="st0" d="M478.9,217.2c1-5.6,6-10,11.6-10.1c2.4,0,4.5,0.9,6,2.5c1.5,1.6,2.4,3.7,2.4,6.1c0,0.4,0,0.7-0.1,1.1
		c0,0.1,0,0.2,0,0.3c-0.1,0.4-0.5,0.8-1,0.8h-17c-0.1,0.4-0.1,0.8-0.1,1.3c0,3.8,2.6,6.5,6.4,6.6c2.8,0,5.6-1.5,7.4-3.8
		c0.4-0.4,1-0.5,1.4-0.1c0.4,0.3,0.5,0.9,0.1,1.3c-2.1,2.7-5.5,4.6-9,4.6c0,0,0,0,0,0c-2.4,0-4.5-0.9-6-2.5
		c-1.5-1.6-2.4-3.7-2.4-6.1C478.7,218.5,478.8,217.9,478.9,217.2z M481.4,215.8h15.5c0,0,0,0,0-0.1c0-3.8-2.6-6.5-6.4-6.6
		C486.6,209.1,482.8,212,481.4,215.8z"/>
	<path class="st0" d="M504.8,226.6l3.2-18.6c0.1-0.5,0.6-0.9,1.2-0.8c0.5,0.1,0.9,0.6,0.8,1.2l-3.3,18.6c-0.1,0.5-0.5,0.8-1,0.8
		c-0.1,0-0.1,0-0.2,0C505.1,227.7,504.7,227.1,504.8,226.6z M510,204c0,0-0.1,0-0.2,0c-0.5-0.1-0.9-0.6-0.8-1.2l0.2-1
		c0.1-0.5,0.6-0.9,1.1-0.8c0.6,0.1,0.9,0.6,0.8,1.2l-0.2,0.9C510.9,203.7,510.5,204,510,204z"/>
	<path class="st0" d="M532.6,215.5c0-0.4,0.1-0.8,0.1-1.1c0-2.9-2-5-5.2-5.1c-3.4,0-7,2.9-7.6,6.5l-1.9,11.2c0,0,0,0.1,0,0.2l0,0
		c0,0,0,0.1,0,0.1c0,0,0,0,0,0c0,0,0,0.1-0.1,0.1c0,0,0,0,0,0c0,0,0,0-0.1,0.1c0,0,0,0,0,0c0,0-0.1,0-0.1,0c0,0,0,0,0,0
		c0,0-0.1,0-0.1,0c0,0,0,0-0.1,0s0,0-0.1,0s-0.1,0-0.1,0c0,0-0.1,0-0.1,0s0,0-0.1,0c-0.5-0.1-0.9-0.6-0.8-1.2l2-11.1c0,0,0,0,0,0
		l1.3-7.4c0.1-0.5,0.6-0.9,1.2-0.8c0.6,0.1,0.9,0.6,0.8,1.1l-0.3,1.6c1.8-1.7,4.2-2.8,6.6-2.8c2.1,0,3.9,0.8,5.2,2.1
		c1.3,1.3,2,3,2,5c0,0.5,0,1-0.1,1.5l-2,11.1c-0.1,0.5-0.5,0.8-1,0.8c0,0,0,0-0.1,0c-0.5-0.1-0.9-0.6-0.8-1.2L532.6,215.5z"/>
	<path class="st0" d="M542.7,225.3c-1.4-1.5-2.3-3.6-2.3-6c0-0.6,0.1-1.3,0.2-1.9c1-5.5,6-10.1,11.3-10.1c2.4,0,4.5,0.9,6,2.5
		c0.5,0.5,0.9,1.1,1.2,1.7l0.6-3.4c0.1-0.5,0.6-0.9,1.1-0.8c0.6,0.1,1,0.6,0.8,1.2l-1.6,9.3l-1.5,8.7c-1,5.3-5.9,9.5-11.2,9.6
		c-1.6,0-3-0.4-4.2-1c-0.5-0.3-0.7-0.8-0.4-1.3c0.3-0.5,0.8-0.6,1.3-0.4c0.9,0.5,2,0.8,3.3,0.8c4.2,0,8.4-3.6,9.2-7.9l0.3-2
		c-2.1,2.3-5.1,3.8-8.1,3.8c0,0,0,0,0,0C546.3,227.8,544.2,226.9,542.7,225.3z M542.4,219.3c0,3.9,2.6,6.5,6.3,6.5
		c4.2,0,8.5-3.7,9.3-8.4c0.1-0.5,0.2-1,0.2-1.5c0-3.9-2.6-6.6-6.3-6.6h0c-4.1,0-8.5,3.8-9.2,8.4
		C542.5,218.3,542.4,218.8,542.4,219.3z"/>
	<path class="st0" d="M580.8,217.2c1-5.6,6-10,11.6-10.1c2.4,0,4.5,0.9,6,2.5c1.5,1.6,2.4,3.7,2.4,6.1c0,0.4,0,0.7-0.1,1.1
		c0,0.1,0,0.2,0,0.3c-0.1,0.4-0.5,0.8-1,0.8h-17c-0.1,0.4-0.1,0.8-0.1,1.3c0,3.8,2.6,6.5,6.4,6.6c2.8,0,5.6-1.5,7.4-3.8
		c0.4-0.4,1-0.5,1.4-0.1c0.4,0.3,0.5,0.9,0.1,1.3c-2.1,2.7-5.5,4.6-9,4.6c0,0,0,0,0,0c-2.4,0-4.5-0.9-6-2.5
		c-1.5-1.6-2.4-3.7-2.4-6.1C580.6,218.5,580.7,217.9,580.8,217.2z M583.3,215.8h15.5c0,0,0,0,0-0.1c0-3.8-2.6-6.5-6.4-6.6
		C588.5,209.1,584.7,212,583.3,215.8z"/>
	<path class="st0" d="M623.1,207.6c0.4,0.4,0.4,1,0,1.4l-7.9,8.6l4.7,8.5c0.3,0.5,0.1,1.1-0.4,1.4c-0.2,0.1-0.3,0.1-0.5,0.1
		c-0.3,0-0.7-0.2-0.8-0.5l-4.4-8l-7.4,8.2c-0.2,0.2-0.5,0.3-0.8,0.3c-0.3,0-0.5-0.1-0.7-0.3c-0.4-0.3-0.5-1-0.1-1.4l7.9-8.6
		l-4.7-8.6c-0.3-0.5-0.1-1.1,0.4-1.3c0.5-0.3,1.1-0.1,1.4,0.4l4.4,8l7.4-8.1C622.1,207.2,622.7,207.2,623.1,207.6z"/>
	<path class="st0" d="M627.3,235.1l3.2-17.8l1.6-9.2c0.1-0.5,0.6-0.9,1.2-0.8c0.6,0.1,1,0.6,0.8,1.2l-0.5,2.6
		c2.2-2.3,5.1-3.8,8.2-3.8c2.4,0,4.6,0.9,6,2.5c1.5,1.5,2.4,3.7,2.4,6.1c0,0.5,0,1.2-0.2,1.8c-1,5.5-6,9.9-11.4,9.9
		c-2.4,0-4.5-0.9-6-2.4c-0.5-0.4-0.9-1-1.3-1.6l-2.1,12c-0.1,0.5-0.5,0.8-1,0.8c0,0-0.1,0-0.2,0
		C627.6,236.2,627.2,235.7,627.3,235.1z M632.5,217.6c-0.1,0.5-0.1,1-0.1,1.5c0,3.7,2.6,6.3,6.4,6.4c4.2,0,8.6-3.7,9.4-8.2
		c0.1-0.5,0.1-1,0.1-1.5c0-3.8-2.6-6.5-6.4-6.5c0,0,0,0,0,0C637.6,209.3,633.3,213.1,632.5,217.6z"/>
	<path class="st0" d="M654.9,217.2c1-5.6,6-10,11.6-10.1c2.4,0,4.5,0.9,6,2.5c1.5,1.6,2.4,3.7,2.4,6.1c0,0.4,0,0.7-0.1,1.1
		c0,0.1,0,0.2,0,0.3c-0.1,0.4-0.5,0.8-1,0.8h-17c-0.1,0.4-0.1,0.8-0.1,1.3c0,3.8,2.6,6.5,6.4,6.6c2.8,0,5.6-1.5,7.4-3.8
		c0.4-0.4,1-0.5,1.4-0.1c0.4,0.3,0.5,0.9,0.1,1.3c-2.1,2.7-5.5,4.6-9,4.6c0,0,0,0,0,0c-2.4,0-4.5-0.9-6-2.5
		c-1.5-1.6-2.4-3.7-2.4-6.1C654.7,218.5,654.7,217.9,654.9,217.2z M657.3,215.8h15.5c0,0,0,0,0-0.1c0-3.8-2.6-6.5-6.4-6.6
		C662.6,209.1,658.8,212,657.3,215.8z"/>
	<path class="st0" d="M680.8,226.5l1.6-9.2c0,0,0,0,0,0l1.6-9.2c0.1-0.5,0.6-0.9,1.1-0.8s0.9,0.6,0.8,1.2l-0.7,4.2
		c0.1-0.1,0.2-0.3,0.3-0.3c2-2.4,5-5,8.9-5c0.5,0,1,0.4,1,1c0,0.5-0.5,1-1,1c-2.6,0-4.9,1.6-6.7,3.4c-1.8,1.9-2.9,4-3.3,4.8
		c0,0.1-0.1,0.2-0.1,0.3l-1.6,9.1c-0.1,0.5-0.5,0.8-1,0.8c0,0-0.1,0-0.2,0C681,227.6,680.6,227.1,680.8,226.5z"/>
	<path class="st0" d="M698.5,226.6l3.2-18.6c0.1-0.5,0.6-0.9,1.2-0.8c0.5,0.1,0.9,0.6,0.8,1.2l-3.3,18.6c-0.1,0.5-0.5,0.8-1,0.8
		c-0.1,0-0.1,0-0.2,0C698.7,227.7,698.4,227.1,698.5,226.6z M703.6,204c0,0-0.1,0-0.2,0c-0.5-0.1-0.9-0.6-0.8-1.2l0.2-1
		c0.1-0.5,0.6-0.9,1.1-0.8c0.6,0.1,0.9,0.6,0.8,1.2l-0.2,0.9C704.5,203.7,704.1,204,703.6,204z"/>
	<path class="st0" d="M708.8,217.2c1-5.6,6-10,11.6-10.1c2.4,0,4.5,0.9,6,2.5c1.5,1.6,2.4,3.7,2.4,6.1c0,0.4,0,0.7-0.1,1.1
		c0,0.1,0,0.2,0,0.3c-0.1,0.4-0.5,0.8-1,0.8h-17c-0.1,0.4-0.1,0.8-0.1,1.3c0,3.8,2.6,6.5,6.4,6.6c2.8,0,5.6-1.5,7.4-3.8
		c0.4-0.4,1-0.5,1.4-0.1c0.4,0.3,0.5,0.9,0.1,1.3c-2.1,2.7-5.5,4.6-9,4.6c0,0,0,0,0,0c-2.4,0-4.5-0.9-6-2.5
		c-1.5-1.6-2.4-3.7-2.4-6.1C708.7,218.5,708.7,217.9,708.8,217.2z M711.3,215.8h15.5c0,0,0,0,0-0.1c0-3.8-2.6-6.5-6.4-6.6
		C716.6,209.1,712.8,212,711.3,215.8z"/>
	<path class="st0" d="M751.5,215.5c0-0.4,0.1-0.8,0.1-1.1c0-2.9-2-5-5.2-5.1c-3.4,0-7,2.9-7.6,6.5l-1.9,11.2c0,0,0,0.1,0,0.2l0,0
		c0,0,0,0.1,0,0.1c0,0,0,0,0,0c0,0,0,0.1-0.1,0.1c0,0,0,0,0,0c0,0,0,0-0.1,0.1c0,0,0,0,0,0c0,0-0.1,0-0.1,0c0,0,0,0,0,0
		c0,0-0.1,0-0.1,0c0,0,0,0-0.1,0s0,0-0.1,0s-0.1,0-0.1,0c0,0-0.1,0-0.1,0s0,0-0.1,0c-0.5-0.1-0.9-0.6-0.8-1.2l2-11.1c0,0,0,0,0,0
		l1.3-7.4c0.1-0.5,0.6-0.9,1.2-0.8c0.6,0.1,0.9,0.6,0.8,1.1l-0.3,1.6c1.8-1.7,4.2-2.8,6.6-2.8c2.1,0,3.9,0.8,5.2,2.1
		c1.3,1.3,2,3,2,5c0,0.5,0,1-0.1,1.5l-2,11.1c-0.1,0.5-0.5,0.8-1,0.8c0,0,0,0-0.1,0c-0.5-0.1-0.9-0.6-0.8-1.2L751.5,215.5z"/>
	<path class="st0" d="M759.4,217.3c1-5.7,6.3-10.1,12.1-10.1c2.5,0,4.7,0.8,6.3,2.3c0.4,0.4,0.4,1,0,1.4s-1,0.5-1.4,0.1
		c-1.2-1.1-2.9-1.8-5-1.8c-4.7,0-9.4,3.9-10.1,8.4c-0.1,0.5-0.1,0.9-0.1,1.4c0,3.8,2.8,6.6,7,6.7c2,0,4-0.7,5.7-1.8
		c0.5-0.3,1.1-0.2,1.4,0.3s0.2,1-0.3,1.4c-2,1.3-4.4,2.2-6.8,2.2c-2.6,0-4.9-0.9-6.5-2.5c-1.6-1.6-2.6-3.8-2.6-6.2
		C759.2,218.4,759.3,217.9,759.4,217.3z"/>
	<path class="st0" d="M782,217.2c1-5.6,6-10,11.6-10.1c2.4,0,4.5,0.9,6,2.5c1.5,1.6,2.4,3.7,2.4,6.1c0,0.4,0,0.7-0.1,1.1
		c0,0.1,0,0.2,0,0.3c-0.1,0.4-0.5,0.8-1,0.8h-17c-0.1,0.4-0.1,0.8-0.1,1.3c0,3.8,2.6,6.5,6.4,6.6c2.8,0,5.6-1.5,7.4-3.8
		c0.4-0.4,1-0.5,1.4-0.1c0.4,0.3,0.5,0.9,0.1,1.3c-2.1,2.7-5.5,4.6-9,4.6c0,0,0,0,0,0c-2.4,0-4.5-0.9-6-2.5
		c-1.5-1.6-2.4-3.7-2.4-6.1C781.8,218.5,781.8,217.9,782,217.2z M784.5,215.8H800c0,0,0,0,0-0.1c0-3.8-2.6-6.5-6.4-6.6
		C789.7,209.1,785.9,212,784.5,215.8z"/>
	<path class="st0" d="M807.5,205.2c1.7-0.8,2.5-1.8,2.7-3.2c-0.6-0.2-1-0.6-0.8-1.5l0.2-0.9c0.2-0.8,1-1.4,1.7-1.4
		c0.8,0,1.3,0.6,1,1.4l-0.2,1c-0.5,2.4-1.1,3.6-2,4.4c-1,0.8-2.1,1.3-2.5,1.3c-0.3,0-0.6-0.2-0.5-0.6
		C807.1,205.5,807.3,205.3,807.5,205.2z M815.1,205.2c1.7-0.8,2.5-1.8,2.7-3.2c-0.6-0.2-1-0.6-0.8-1.5l0.2-0.9
		c0.2-0.8,1-1.4,1.7-1.4c0.8,0,1.3,0.6,1.1,1.4l-0.2,1c-0.5,2.4-1.1,3.6-2,4.4c-1,0.8-2.1,1.3-2.5,1.3c-0.3,0-0.6-0.2-0.5-0.6
		C814.7,205.5,814.9,205.3,815.1,205.2z"/>
</g>
</svg>
