<svg xmlns="http://www.w3.org/2000/svg" id="_&#x421;&#x43B;&#x43E;&#x439;_2" viewBox="0 0 1113.3 2186"><rect width="0" height="52.9" fill="#fff" stroke-width="0"></rect><path d="m0,0v2158.8h0v27.3h1113.3V0H0Zm1041.3,2101.1l-5.4-5.4-50.9,50.9,12.2,12.2H111.1l13.3-13.3-50.9-50.9-1.5,1.5V107.6l49.2-49.2-5.6-5.5h872.9l-6.7,6.7,50.9,50.9,8.6-8.6v1999.2Z" fill="#fff" stroke-width="0"></path><path d="m1069,366.4h-2v-212.1c0-70.3-57-127.4-127.4-127.4H167.7c-70.3,0-127.4,57-127.4,127.4v212.1h-2c-9.2,0-16.6,7.4-16.6,16.6v146.7c0,9.2,7.4,16.6,16.6,16.6h2v35h-2c-9.2,0-16.6,7.4-16.6,16.6v146.7c0,9.2,7.4,16.6,16.6,16.6h2v1285.1c0,70.3,57,127.4,127.4,127.4h772c70.3,0,127.4-57,127.4-127.4V636.4h2c9.2,0,16.6-7.4,16.6-16.6v-236.7c0-9.2-7.4-16.6-16.6-16.6ZM77.4,161.8c0-57.1,46.3-103.4,103.4-103.4h745.7c57.1,0,103.4,46.3,103.4,103.4v1877.1c0,57.1-46.3,103.4-103.4,103.4H180.8c-57.1,0-103.4-46.3-103.4-103.4V161.8Z" fill="#333343" stroke-width="0"></path><rect x="1105.2" width="8.1" height="2186" fill="#fff" stroke-width="0"></rect><polygon points="7.5 0 7.5 2186 0 2186 0 2158.8 0 2158.8 0 52.9 0 52.9 0 0 7.5 0" fill="#fff" stroke-width="0"></polygon></svg>