<?xml version="1.0" encoding="UTF-8"?>
<svg width="1200pt" height="1200pt" version="1.1" viewBox="0 0 1200 1200" xmlns="http://www.w3.org/2000/svg">
 <g fill="#ff814a">
  <path d="m600 216.56c-50.59 0-100.04 15.004-142.11 43.113-42.062 28.113-74.844 68.066-94.195 114.81-19.352 46.742-24.406 98.176-14.52 147.79 9.8828 49.613 34.258 95.184 70.043 130.95 35.789 35.758 81.375 60.102 131 69.949 49.625 9.8477 101.05 4.7539 147.78-14.633 46.73-19.383 86.66-52.195 114.74-94.277 28.082-42.082 43.047-91.547 43.012-142.14-0.097656-67.781-27.082-132.75-75.027-180.67-47.949-47.91-112.94-74.844-180.72-74.895zm121.88 195.94-127.88 153.56c-4.668 5.5781-11.48 8.918-18.75 9.1875h-1.125c-6.9961 0.078125-13.738-2.6172-18.75-7.5l-76.688-76.688c-6.4648-6.4648-8.9883-15.887-6.6211-24.715 2.3633-8.832 9.2617-15.73 18.094-18.094 8.8281-2.3672 18.25 0.15625 24.715 6.6211l56.25 56.25 110.06-131.25c5.8281-7.2695 15.09-10.875 24.301-9.4609 9.207 1.4102 16.961 7.6289 20.344 16.312 3.3789 8.6797 1.8711 18.504-3.957 25.773z"/>
  <path d="m767.25 854.06c16.699 5.2539 34.836 3.2734 50.012-5.4531s26.004-23.41 29.863-40.484c4.8516-21.691 15.762-41.559 31.461-57.293 15.699-15.734 35.547-26.684 57.227-31.582 17.066-3.8203 31.758-14.605 40.52-29.738 8.7617-15.137 10.793-33.246 5.6055-49.949-6.5898-21.223-7.043-43.875-1.3008-65.34 5.7383-21.469 17.438-40.871 33.738-55.973 12.914-11.859 20.266-28.59 20.266-46.125s-7.3516-34.266-20.266-46.125c-16.285-15.07-27.977-34.441-33.715-55.875-5.7422-21.438-5.2969-44.059 1.2773-65.25 5.25-16.727 3.2461-34.887-5.5195-50.066-8.7656-15.184-23.496-25.992-40.605-29.809-21.668-4.8633-41.504-15.777-57.207-31.48s-26.617-35.539-31.48-57.207c-3.8164-17.109-14.625-31.84-29.809-40.605-15.18-8.7656-33.34-10.77-50.066-5.5195-21.188 6.6211-43.824 7.0859-65.266 1.3438-21.445-5.7422-40.816-17.457-55.859-33.781-11.859-12.914-28.59-20.266-46.125-20.266s-34.266 7.3516-46.125 20.266c-15.043 16.324-34.414 28.039-55.859 33.781-21.441 5.7422-44.078 5.2773-65.266-1.3438-16.727-5.25-34.887-3.2461-50.066 5.5195-15.184 8.7656-25.992 23.496-29.809 40.605-4.8633 21.668-15.777 41.504-31.48 57.207s-35.539 26.617-57.207 31.48c-17.109 3.8164-31.84 14.625-40.605 29.809-8.7656 15.18-10.77 33.34-5.5195 50.066 6.5742 21.191 7.0195 43.812 1.2773 65.25-5.7383 21.434-17.43 40.805-33.715 55.875-12.914 11.859-20.266 28.59-20.266 46.125s7.3516 34.266 20.266 46.125c16.301 15.102 28 34.504 33.738 55.973 5.7422 21.465 5.2891 44.117-1.3008 65.34-5.1875 16.703-3.1562 34.812 5.6055 49.949 8.7617 15.133 23.453 25.918 40.52 29.738 21.68 4.8984 41.527 15.848 57.227 31.582 15.699 15.734 26.609 35.602 31.461 57.293 3.8594 17.074 14.688 31.758 29.863 40.484s33.312 10.707 50.012 5.4531c21.207-6.5977 43.852-7.0352 65.297-1.2578 21.441 5.7734 40.805 17.527 55.828 33.883 11.918 12.812 28.629 20.086 46.125 20.086s34.207-7.2734 46.125-20.086c15.023-16.355 34.387-28.109 55.828-33.883 21.445-5.7773 44.09-5.3398 65.297 1.2578zm-167.25-75c-60.715 0.035156-120.07-17.934-170.58-51.637-50.5-33.703-89.867-81.629-113.13-137.71-23.262-56.082-29.363-117.8-17.543-177.36s41.039-114.26 83.957-157.21c42.922-42.941 97.609-72.195 157.16-84.055 59.543-11.855 121.27-5.7891 177.37 17.438 56.094 23.223 104.04 62.566 137.78 113.05 33.734 50.477 51.742 109.83 51.742 170.54-0.097656 81.344-32.441 159.33-89.941 216.86-57.5 57.535-135.46 89.926-216.81 90.074z"/>
  <path d="m413.81 908.06c-25.879 0.24219-51.051-8.4492-71.273-24.605-20.219-16.152-34.25-38.785-39.727-64.082-1.9453-8.7734-5.6445-17.066-10.875-24.375l-152.25 265.69 126.94-15.562 50.625 117.38 150-262.5c-6.6797-0.039062-13.324 0.97266-19.688 3-10.941 3.332-22.312 5.0391-33.75 5.0625z"/>
  <path d="m908.06 795c-5.2305 7.3086-8.9297 15.602-10.875 24.375-5.4766 25.297-19.508 47.93-39.727 64.082-20.223 16.156-45.395 24.848-71.273 24.605-11.562 0.011719-23.062-1.6914-34.125-5.0625-6.0664-1.9336-12.387-2.9453-18.75-3l150 262.5 50.625-117.38 126.94 15.562z"/>
 </g>
</svg>
