<?xml version="1.0" encoding="UTF-8"?>
<svg width="1200pt" height="1200pt" version="1.1" viewBox="0 0 1200 1200" xmlns="http://www.w3.org/2000/svg">
 <path d="m600 9.2305c-223.38 0-406.15 182.77-406.15 406.15 0 217.85 374.77 745.85 391.38 768 3.6914 5.5391 9.2305 7.3828 14.77 7.3828s11.078-1.8477 14.77-7.3828c3.6914-5.5391 391.38-548.31 391.38-768 0-223.38-182.77-406.15-406.15-406.15zm0 638.77c-129.23 0-232.62-105.23-232.62-232.62 0-129.23 105.23-232.62 232.62-232.62 129.23 0 232.62 105.23 232.62 232.62 0 129.23-103.39 232.62-232.62 232.62z"/>
</svg>
