<?xml version="1.0" encoding="UTF-8"?>
<svg width="1200pt" height="1200pt" version="1.1" viewBox="0 0 1200 1200" xmlns="http://www.w3.org/2000/svg">
 <g>
  <path d="m432 709.2c9.6016 7.1992 16.801 18 16.801 28.801l3.6016 37.199c2.3984 22.801 18 40.801 39.602 46.801 34.801 9.6016 72 14.398 108 14.398s73.199-4.8008 108-14.398c21.602-6 37.199-25.199 39.602-46.801l3.6016-37.199c1.1992-12 7.1992-22.801 16.801-28.801 58.801-44.398 94.801-116.4 94.801-214.8v-14.398l-9.6016-10.801c-19.199-24-76.801-62.398-254.4-62.398-177.6 0-235.2 38.398-254.4 62.398l-8.4102 10.801v14.398c0 98.402 37.199 170.4 96 214.8zm212.4-166.8c3.6016-33.602 27.602-58.801 72-52.801 43.199 6 60 34.801 56.398 68.398-4.8008 33.602-22.801 57.602-72 52.801-50.398-4.7969-61.195-34.797-56.398-68.398zm-57.598 91.203c4.8008-12 22.801-12 27.602 0l27.602 64.801c6 13.199-3.6016 28.801-19.199 28.801h-45.602c-14.398 0-25.199-15.602-19.199-28.801zm-102-144c43.199-6 67.199 19.199 72 52.801 3.6016 33.602-7.1992 63.602-56.398 68.398-49.199 4.8008-67.199-19.199-72-52.801-4.8008-32.398 11.996-62.398 56.398-68.398z"/>
  <path d="m861.6 934.8c14.398 6 36 10.801 57.602 6 46.801-12 57.602-34.801 51.602-60-3.6016-16.801-14.398-28.801-33.602-33.602 1.1992-10.801-1.1992-21.602-6-31.199-12-24-36-36-66-19.199-13.199 7.1992-24 22.801-30 36-7.1992 15.602-20.398 27.602-37.199 32.398l-198 70.801-198-72c-15.602-6-28.801-18-37.199-32.398-7.1992-13.199-16.801-28.801-30-36-30-15.602-54-3.6016-66 20.398-4.8008 10.801-8.3984 21.602-6 31.199-18 4.8008-30 16.801-33.602 33.602-6 25.199 3.6016 49.199 51.602 60 21.602 4.8008 43.199 0 57.602-6 14.398-6 31.199-6 45.602 0l110.4 39.602-130.8 46.801c-15.602 6-32.398 4.8008-46.801-1.1992-14.398-6-34.801-12-50.398-8.3984-33.602 7.1992-44.398 32.398-38.398 57.602 2.3984 12 7.1992 21.602 15.602 28.801-10.801 15.602-12 32.398-3.6016 46.801 12 24 34.801 34.801 78 13.199 20.398-9.6016 33.602-28.801 42-43.199 7.1992-13.199 20.398-24 34.801-28.801l205.2-73.207 205.2 74.398c14.398 4.8008 26.398 15.602 34.801 28.801 8.3984 14.398 21.602 33.602 42 43.199 43.199 21.602 66 9.6016 78-13.199 7.1992-14.398 7.1992-31.199-3.6016-46.801 7.1992-7.1992 13.199-16.801 15.602-28.801 6-25.199-4.8008-50.398-38.398-57.602-15.602-3.6016-34.801 2.3984-50.398 8.3984-15.602 6-32.398 6-46.801 1.1992l-130.8-46.801 110.4-39.602c14.398-7.1914 31.199-7.1914 45.602-1.1914z"/>
  <path d="m1002 303.6c-55.199-9.6016-189.6-49.203-304.8-219.6-49.199-72-145.2-72-194.4 0-115.2 170.4-249.6 210-304.8 219.6-13.199 2.3984-22.801 18-18 33.602l20.398 84c2.3984 10.801 12 19.199 21.602 19.199h86.398c48-60 159.6-80.398 291.6-80.398 133.2 0 243.6 20.398 291.6 80.398h86.398c10.801 0 19.199-7.1992 21.602-19.199l21.602-84c3.5977-15.602-6.0039-32.402-19.203-33.602z"/>
 </g>
</svg>
